<!DOCTYPE svg PUBLIC "-//W3C//DTD SVG 20010904//EN" "http://www.w3.org/TR/2001/REC-SVG-20010904/DTD/svg10.dtd">
<svg version="1.0" xmlns="http://www.w3.org/2000/svg" width="300px" height="150px" viewBox="0 0 3000 1500" preserveAspectRatio="xMidYMid meet">
<g id="layer101" fill="#005baf" stroke="none">
 <path d="M1694 1329 c-3 -5 -1 -16 6 -24 9 -11 7 -18 -9 -34 -25 -25 -27 -63 -5 -85 18 -19 28 -20 55 -6 36 20 17 137 -25 153 -9 4 -18 2 -22 -4z m36 -105 c0 -14 -12 -19 -23 -8 -9 9 4 35 14 28 5 -3 9 -12 9 -20z"/>
 <path d="M940 1255 c0 -60 3 -75 15 -75 12 0 15 15 15 75 0 60 -3 75 -15 75 -12 0 -15 -15 -15 -75z"/>
 <path d="M980 1323 c1 -19 18 -33 33 -27 26 10 20 -14 -10 -40 -21 -18 -25 -28 -19 -49 10 -41 76 -51 76 -11 0 8 -9 14 -20 14 -27 0 -25 14 4 33 23 15 24 15 29 -12 18 -89 117 -74 117 17 0 53 -23 82 -65 82 -25 0 -35 -5 -40 -21 l-7 -21 -15 21 c-10 14 -25 21 -49 21 -19 0 -34 -3 -34 -7z m170 -44 c15 -28 4 -71 -17 -67 -21 4 -32 38 -22 66 10 28 25 28 39 1z"/>
 <path d="M1190 1322 c0 -23 48 -146 58 -150 17 -5 15 10 -8 89 -14 44 -26 69 -35 69 -8 0 -15 -4 -15 -8z"/>
 <path d="M1270 1255 c0 -60 3 -75 15 -75 12 0 15 15 15 75 0 60 -3 75 -15 75 -12 0 -15 -15 -15 -75z"/>
 <path d="M1320 1255 l0 -75 40 0 c29 0 40 4 40 15 0 9 -9 15 -25 15 -14 0 -25 5 -25 10 0 6 11 10 25 10 18 0 25 5 25 20 0 15 -7 20 -25 20 -16 0 -25 6 -25 15 0 9 9 15 25 15 16 0 25 6 25 15 0 11 -11 15 -40 15 l-40 0 0 -75z"/>
 <path d="M1420 1311 c-5 -11 -10 -38 -10 -60 0 -62 46 -99 89 -72 17 11 6 31 -18 31 -23 0 -41 20 -41 46 0 28 21 45 48 37 18 -4 22 -1 22 16 0 18 -6 21 -40 21 -29 0 -42 -5 -50 -19z"/>
 <path d="M1570 1323 c0 -5 12 -26 25 -48 30 -49 32 -69 6 -60 -26 8 -37 -13 -18 -32 20 -20 63 -10 72 16 3 11 -1 36 -10 56 -18 46 -18 45 0 45 8 0 15 7 15 15 0 11 -12 15 -45 15 -25 0 -45 -3 -45 -7z"/>
 <path d="M1810 1285 c0 -25 -4 -45 -10 -45 -17 0 -11 -29 10 -50 11 -11 22 -20 25 -20 3 0 5 36 5 80 0 64 -3 80 -15 80 -11 0 -15 -12 -15 -45z"/>
 <path d="M1910 1285 c0 -25 -4 -45 -10 -45 -19 0 -9 -35 15 -53 l25 -18 0 81 c0 64 -3 80 -15 80 -11 0 -15 -12 -15 -45z"/>
 <path d="M1979 1303 c-14 -37 -5 -104 17 -120 41 -30 74 -1 74 63 0 61 -14 84 -51 84 -23 0 -32 -6 -40 -27z m56 -48 c0 -22 -5 -40 -12 -42 -9 -3 -13 9 -13 42 0 33 4 45 13 43 7 -3 12 -21 12 -43z"/>
 <path d="M1371 1095 c-86 -24 -168 -74 -222 -134 -27 -30 -49 -59 -49 -63 0 -21 29 -4 63 37 36 43 69 57 82 35 3 -6 -3 -22 -14 -36 -39 -50 -16 -63 25 -15 22 27 27 28 59 18 28 -8 34 -14 29 -29 -3 -12 0 -18 9 -18 9 0 17 5 19 12 5 14 101 12 106 -3 5 -11 29 -12 34 0 2 4 24 10 50 13 34 4 48 2 52 -8 8 -21 35 -17 29 4 -3 14 4 21 30 29 33 10 37 9 56 -18 12 -16 29 -29 37 -29 13 0 12 6 -6 35 -22 35 -20 55 4 55 8 0 32 -21 55 -46 56 -59 87 -57 39 3 -46 58 -126 117 -196 144 -75 28 -215 35 -291 14z m184 -30 c-16 -8 -43 -14 -60 -14 -16 0 -43 6 -60 14 -28 12 -24 13 60 13 84 0 88 -1 60 -13z m-221 -27 c-16 -13 -36 -31 -44 -40 -13 -15 -18 -15 -33 -4 -16 13 -13 16 35 40 64 32 80 33 42 4z m357 -3 c44 -23 58 -46 26 -45 -13 1 -97 70 -84 70 4 0 30 -11 58 -25z m-297 -37 c-15 -24 -28 -44 -29 -46 -1 -1 -15 2 -31 9 l-29 11 39 34 c22 19 48 34 58 34 16 0 16 -4 -8 -42z m246 11 c42 -31 43 -41 5 -53 -16 -5 -26 3 -47 39 -33 54 -20 59 42 14z m-162 -34 c3 -45 2 -47 -20 -41 -13 3 -33 6 -46 6 -23 0 -23 0 8 46 18 25 37 43 43 41 7 -2 13 -25 15 -52z m88 15 c15 -22 25 -42 23 -44 -2 -2 -21 -6 -41 -10 l-38 -7 0 51 c0 63 19 67 56 10z"/>
 <path d="M1368 846 c-21 -8 -38 -10 -38 -5 0 5 -22 9 -50 9 l-50 0 0 -80 0 -80 42 0 42 0 -24 -17 c-47 -33 -59 -55 -60 -111 0 -46 4 -58 28 -82 48 -47 123 -61 205 -36 26 8 47 10 47 5 0 -5 23 -9 50 -9 l50 0 0 75 0 75 -48 0 c-35 0 -54 -5 -66 -19 -20 -22 -98 -46 -121 -37 -28 10 -8 22 90 51 120 35 155 68 155 144 0 57 -26 96 -76 117 -42 18 -127 17 -176 0z m104 -101 c-2 -10 -65 -34 -124 -49 -43 -10 -24 22 26 45 42 20 103 22 98 4z"/>
 <path d="M1746 845 c-84 -30 -120 -93 -119 -207 1 -92 30 -144 98 -178 94 -47 238 -28 298 38 65 72 60 238 -8 307 -53 52 -181 72 -269 40z m146 -112 c14 -12 18 -31 18 -83 0 -72 -11 -96 -51 -105 -54 -13 -91 55 -75 139 4 20 14 42 22 51 20 20 63 19 86 -2z"/>
 <path d="M950 800 c0 -49 1 -50 30 -50 l30 0 0 -100 0 -100 -30 0 c-30 0 -30 -1 -30 -55 l0 -55 135 0 135 0 0 55 0 55 -35 0 -35 0 0 100 0 100 35 0 35 0 0 50 0 50 -135 0 -135 0 0 -50z"/>
 <path d="M1100 389 c0 -22 103 -118 159 -147 144 -78 303 -81 451 -10 47 23 170 135 170 156 0 23 -19 12 -66 -38 -39 -42 -48 -47 -64 -38 -17 11 -17 13 6 47 21 31 22 36 8 39 -9 2 -19 0 -23 -5 -36 -53 -36 -53 -73 -41 -27 8 -34 15 -31 29 6 21 -22 28 -29 7 -6 -16 -100 -11 -110 5 -6 9 -10 9 -16 0 -10 -16 -104 -21 -110 -5 -6 19 -32 14 -32 -7 0 -12 -11 -23 -30 -29 -26 -10 -32 -8 -54 19 -23 26 -46 38 -46 23 0 -4 9 -21 20 -40 l21 -32 -23 -8 c-18 -5 -30 2 -64 40 -41 44 -64 57 -64 35z m380 -73 c0 -62 -22 -67 -61 -13 l-31 42 34 6 c59 11 58 12 58 -35z m88 34 c23 0 23 -1 7 -27 -31 -53 -42 -63 -59 -57 -11 4 -16 19 -16 51 0 42 2 45 23 39 12 -3 32 -6 45 -6z m-183 -50 c14 -22 25 -42 25 -45 0 -15 -31 -1 -66 29 l-39 34 25 11 c14 5 26 10 27 10 2 1 14 -17 28 -39z m270 -6 c-38 -30 -74 -49 -81 -42 -3 4 6 24 21 46 25 39 28 40 58 30 l30 -11 -28 -23z m-337 -30 c34 -27 40 -34 22 -29 -48 14 -101 48 -88 57 18 11 14 12 66 -28z m410 28 c13 -9 -39 -43 -88 -57 -19 -6 -14 1 20 28 51 40 50 40 68 29z m-181 -64 l28 -11 -42 -7 c-24 -3 -62 -3 -85 0 -41 7 -42 7 -18 18 33 14 82 15 117 0z"/>
 </g>

</svg>