<svg id="svg" xmlns="http://www.w3.org/2000/svg" xmlns:xlink="http://www.w3.org/1999/xlink" width="400" height="94.73684210526315" viewBox="0, 0, 400,94.73684210526315"><g id="svgg"><path id="path0" d="M83.500 13.304 C 83.362 13.468,82.931 13.855,82.542 14.163 C 81.613 14.896,81.592 14.836,83.384 16.577 C 85.668 18.795,87.060 20.382,88.581 22.500 C 88.943 23.004,89.280 23.454,89.329 23.500 C 89.531 23.686,90.333 25.004,90.333 25.149 C 90.333 25.235,90.398 25.331,90.478 25.361 C 90.632 25.420,92.833 29.304,92.833 29.516 C 92.833 29.586,93.084 30.192,93.391 30.863 C 94.736 33.804,95.892 37.503,96.323 40.250 C 96.409 40.800,96.531 41.494,96.594 41.792 L 96.708 42.333 88.367 42.333 L 80.026 42.333 79.919 41.792 C 79.250 38.426,76.411 32.537,74.424 30.396 C 74.328 30.293,73.950 29.852,73.583 29.416 C 72.593 28.238,71.634 27.301,69.863 25.784 C 69.007 25.051,65.968 23.000,65.737 23.000 C 65.622 23.000,65.503 22.944,65.472 22.875 C 65.442 22.806,63.842 22.789,61.917 22.837 C 59.841 22.888,58.552 22.979,58.750 23.061 C 58.933 23.136,59.308 23.279,59.583 23.378 C 60.026 23.538,60.904 23.920,62.833 24.793 C 65.400 25.954,70.377 30.050,72.097 32.417 C 72.363 32.783,72.622 33.121,72.671 33.167 C 72.890 33.369,74.000 35.156,74.000 35.306 C 74.000 35.397,74.060 35.497,74.133 35.528 C 74.356 35.621,75.842 38.863,76.297 40.250 C 76.773 41.699,77.333 44.258,77.333 44.984 L 77.333 45.385 79.360 45.276 C 80.474 45.216,85.574 45.167,90.693 45.167 L 100.000 45.167 100.000 44.092 C 100.000 43.500,99.932 42.656,99.848 42.217 C 99.765 41.777,99.607 40.854,99.499 40.167 C 99.073 37.479,97.726 32.729,96.811 30.688 C 96.620 30.264,96.349 29.654,96.207 29.333 C 95.635 28.037,94.963 26.697,94.410 25.750 C 94.089 25.200,93.782 24.619,93.727 24.458 C 93.673 24.298,93.562 24.167,93.481 24.167 C 93.400 24.167,93.333 24.090,93.333 23.996 C 93.333 23.851,92.698 22.787,92.290 22.250 C 92.221 22.158,91.669 21.408,91.063 20.583 C 90.458 19.758,89.914 19.046,89.855 19.000 C 89.796 18.954,89.524 18.617,89.251 18.250 C 88.446 17.171,84.272 13.000,84.000 13.002 C 83.862 13.004,83.637 13.139,83.500 13.304 M279.667 21.866 C 277.696 21.947,274.351 21.990,272.233 21.961 L 268.382 21.910 268.273 26.580 C 268.136 32.445,267.884 39.914,267.677 44.250 C 267.148 55.361,267.138 55.520,266.661 60.417 C 266.571 61.333,266.499 62.196,266.499 62.333 C 266.502 63.119,290.306 62.492,292.466 61.649 C 292.677 61.567,292.983 61.500,293.146 61.500 C 294.167 61.500,297.762 59.629,299.626 58.128 C 305.470 53.420,308.294 43.805,306.393 35.087 C 306.053 33.527,305.264 31.180,304.813 30.391 C 304.612 30.038,304.366 29.599,304.266 29.414 C 303.055 27.183,300.807 25.100,298.046 23.647 C 294.881 21.982,289.497 21.460,279.667 21.866 M357.972 25.083 C 357.927 25.129,357.520 25.245,357.070 25.341 C 356.619 25.438,355.950 25.589,355.583 25.677 C 354.886 25.845,352.560 26.291,351.417 26.476 C 350.650 26.599,350.552 26.966,350.515 29.833 C 350.505 30.613,350.450 31.531,350.393 31.875 L 350.290 32.500 348.087 32.500 L 345.884 32.500 345.776 34.125 C 345.717 35.019,345.668 36.369,345.668 37.125 L 345.667 38.500 347.774 38.500 L 349.882 38.500 349.767 39.792 C 349.187 46.308,348.882 57.404,349.248 58.707 C 350.440 62.956,355.311 64.318,363.410 62.666 C 364.452 62.453,364.443 62.464,364.672 61.167 C 364.777 60.571,364.923 59.783,364.995 59.417 C 365.632 56.180,365.628 56.133,364.745 56.342 C 358.163 57.899,357.335 56.991,357.676 48.583 C 357.814 45.195,358.126 38.670,358.157 38.545 C 358.162 38.524,359.873 38.486,361.958 38.461 L 365.750 38.417 365.796 35.458 L 365.841 32.500 362.066 32.500 L 358.290 32.500 358.394 30.708 C 358.742 24.656,358.743 25.000,358.384 25.000 C 358.203 25.000,358.018 25.037,357.972 25.083 M289.583 28.564 C 292.030 29.168,293.084 29.721,294.436 31.113 C 297.865 34.640,298.695 41.048,296.537 47.333 C 295.738 49.661,294.166 51.962,292.495 53.250 C 292.019 53.617,291.544 53.995,291.440 54.090 C 290.004 55.403,285.728 56.163,279.767 56.165 L 275.783 56.167 275.899 54.458 C 276.030 52.540,276.220 48.320,276.584 39.250 C 276.720 35.858,276.880 32.018,276.940 30.716 L 277.049 28.350 277.816 28.278 C 279.692 28.104,288.594 28.320,289.583 28.564 M326.000 31.664 C 323.803 31.854,320.305 32.394,318.333 32.848 C 317.921 32.943,317.391 33.060,317.155 33.108 C 316.753 33.190,316.715 33.288,316.519 34.723 C 316.404 35.563,316.245 36.587,316.165 37.000 C 315.873 38.512,315.821 39.000,315.953 39.000 C 316.027 39.000,316.875 38.728,317.836 38.395 C 318.797 38.062,319.808 37.731,320.083 37.659 C 320.358 37.587,320.996 37.416,321.500 37.278 C 327.393 35.666,332.689 36.562,333.090 39.237 C 333.421 41.444,331.684 42.828,327.417 43.758 C 320.750 45.210,317.310 46.455,315.029 48.243 C 311.070 51.345,310.729 57.390,314.319 60.837 C 315.233 61.715,316.095 62.195,317.750 62.748 C 319.303 63.267,323.811 63.502,325.903 63.174 C 326.461 63.087,327.269 62.971,327.699 62.916 L 328.481 62.816 328.743 61.866 C 329.255 60.006,329.333 59.737,329.664 58.681 C 330.073 57.378,330.138 57.438,328.738 57.821 C 325.013 58.842,322.279 58.520,320.844 56.890 C 318.527 54.257,320.928 51.100,326.333 49.672 C 327.112 49.466,328.050 49.204,328.417 49.090 C 328.783 48.975,329.421 48.783,329.833 48.662 C 330.246 48.541,330.655 48.380,330.742 48.304 C 330.829 48.229,331.004 48.167,331.130 48.167 C 331.257 48.167,331.786 47.917,332.305 47.613 L 333.250 47.058 333.124 49.154 C 333.054 50.307,332.920 52.637,332.827 54.333 C 332.733 56.029,332.582 58.242,332.491 59.250 C 332.399 60.258,332.295 61.421,332.258 61.833 L 332.192 62.583 336.489 62.583 L 340.785 62.583 340.887 59.333 C 341.059 53.796,341.321 48.336,341.510 46.333 C 341.840 42.832,341.800 37.729,341.435 36.667 C 341.008 35.424,340.627 34.883,339.583 34.038 C 337.070 32.002,332.109 31.135,326.000 31.664 M384.250 31.662 C 381.672 31.891,378.995 32.303,376.549 32.848 C 374.836 33.231,374.919 33.139,374.674 34.924 C 374.491 36.249,374.219 37.870,374.066 38.542 C 373.933 39.122,373.838 39.133,376.408 38.265 C 384.862 35.410,391.336 36.040,391.333 39.718 C 391.331 41.673,389.470 42.945,385.333 43.820 C 384.829 43.927,384.154 44.083,383.833 44.167 C 383.193 44.335,381.461 44.768,380.417 45.022 C 379.536 45.236,376.795 46.170,376.583 46.329 C 376.492 46.398,376.217 46.502,375.973 46.560 C 374.533 46.903,371.520 49.607,370.740 51.256 C 369.379 54.132,370.093 58.448,372.285 60.604 C 373.360 61.661,373.553 61.805,374.295 62.101 C 374.637 62.237,375.067 62.410,375.250 62.484 C 377.332 63.334,381.581 63.559,385.318 63.015 C 386.777 62.803,386.653 62.896,386.954 61.796 C 387.371 60.275,387.835 58.673,388.109 57.810 C 388.189 57.559,388.116 57.557,387.223 57.781 C 382.293 59.017,379.468 58.406,378.410 55.876 C 377.506 53.712,379.299 51.434,382.917 50.152 C 383.851 49.821,384.295 49.684,384.750 49.589 C 387.121 49.093,390.468 47.842,391.092 47.217 C 391.373 46.936,391.381 47.039,391.273 49.503 C 391.039 54.854,390.630 60.764,390.408 62.000 L 390.303 62.583 394.640 62.583 L 398.977 62.583 399.066 61.250 C 399.115 60.517,399.195 57.892,399.244 55.417 C 399.294 52.942,399.407 50.017,399.496 48.917 C 400.166 40.643,400.186 38.414,399.601 36.686 C 399.199 35.498,398.684 34.733,397.863 34.103 C 397.617 33.915,397.379 33.712,397.333 33.652 C 397.287 33.592,396.786 33.310,396.220 33.025 C 395.210 32.517,394.856 32.405,392.667 31.903 C 391.383 31.609,386.449 31.468,384.250 31.662 M0.000 50.492 C 0.000 51.129,0.067 52.010,0.150 52.450 C 0.232 52.890,0.388 53.775,0.496 54.417 C 1.034 57.613,2.168 61.616,3.210 64.000 C 4.356 66.624,4.896 67.736,5.594 68.917 C 5.919 69.467,6.227 70.048,6.279 70.208 C 6.330 70.369,6.438 70.500,6.519 70.500 C 6.600 70.500,6.667 70.577,6.667 70.670 C 6.667 70.820,7.348 71.954,7.716 72.417 C 7.789 72.508,8.273 73.183,8.791 73.917 C 9.310 74.650,9.775 75.287,9.825 75.333 C 9.876 75.379,10.286 75.867,10.738 76.417 C 12.019 77.977,15.848 81.743,15.972 81.565 C 16.033 81.477,16.288 81.249,16.537 81.057 C 16.787 80.866,17.263 80.470,17.595 80.179 L 18.200 79.648 16.544 78.032 C 14.430 75.969,13.414 74.824,11.939 72.843 C 11.286 71.967,10.713 71.212,10.665 71.167 C 10.568 71.074,9.066 68.694,8.614 67.917 C 7.914 66.715,6.211 63.037,5.758 61.750 C 5.597 61.292,5.403 60.767,5.327 60.583 C 4.822 59.366,4.251 57.262,3.832 55.083 C 3.726 54.533,3.571 53.769,3.487 53.385 C 3.402 53.000,3.333 52.569,3.333 52.426 C 3.333 52.195,4.232 52.167,11.639 52.167 L 19.945 52.167 20.234 53.375 C 21.076 56.906,23.615 62.168,25.375 64.030 C 25.490 64.151,25.857 64.588,26.192 65.000 C 27.857 67.049,29.857 68.817,32.624 70.687 L 34.332 71.840 37.958 71.795 C 40.091 71.768,41.446 71.693,41.250 71.611 C 41.067 71.535,40.242 71.205,39.417 70.879 C 38.592 70.553,37.504 70.059,37.000 69.781 C 36.496 69.503,35.840 69.161,35.542 69.020 C 35.244 68.879,35.000 68.705,35.000 68.632 C 35.000 68.559,34.894 68.500,34.764 68.500 C 34.634 68.500,34.503 68.442,34.472 68.372 C 34.442 68.301,33.892 67.876,33.250 67.427 C 32.019 66.565,28.728 63.378,27.905 62.250 C 27.637 61.883,27.374 61.546,27.320 61.500 C 27.131 61.341,26.000 59.493,26.000 59.344 C 26.000 59.262,25.940 59.169,25.866 59.139 C 25.743 59.087,24.500 56.612,24.500 56.417 C 24.500 56.369,24.358 56.012,24.185 55.623 C 23.631 54.383,23.200 52.800,22.824 50.625 L 22.600 49.333 11.300 49.333 L 0.000 49.333 0.000 50.492 M178.747 74.395 C 176.397 75.274,175.227 77.459,176.188 79.169 C 176.597 79.897,177.148 80.209,178.833 80.665 C 181.427 81.368,181.954 81.790,181.750 82.998 C 181.248 85.971,175.833 86.131,175.833 83.173 L 175.833 82.480 175.208 82.532 C 174.498 82.590,174.377 82.930,174.580 84.287 C 175.109 87.816,182.232 86.948,182.998 83.262 C 183.463 81.018,182.825 80.255,179.917 79.578 C 177.758 79.076,177.056 78.511,177.256 77.441 C 177.770 74.702,182.667 74.523,182.667 77.244 C 182.667 78.224,183.889 78.089,183.970 77.099 C 184.156 74.823,181.406 73.399,178.747 74.395 M196.705 74.388 C 196.250 74.641,195.500 75.705,195.500 76.097 C 195.500 77.036,195.120 77.667,194.553 77.667 C 194.104 77.667,193.959 77.752,193.829 78.094 C 193.606 78.681,193.595 78.667,194.268 78.667 C 194.853 78.667,194.867 78.682,194.787 79.208 C 194.697 79.803,194.254 82.031,194.017 83.083 C 193.934 83.450,193.786 84.125,193.687 84.583 C 193.589 85.042,193.460 85.585,193.401 85.792 C 193.305 86.131,193.352 86.167,193.891 86.167 C 194.581 86.167,194.510 86.345,195.355 82.500 C 195.445 82.087,195.588 81.487,195.670 81.167 C 195.753 80.846,195.872 80.152,195.934 79.625 L 196.046 78.667 196.940 78.667 C 197.822 78.667,197.833 78.660,197.833 78.167 C 197.833 77.683,197.808 77.667,197.064 77.667 C 196.342 77.667,196.302 77.643,196.413 77.292 C 196.478 77.085,196.569 76.716,196.616 76.472 C 196.747 75.783,197.263 75.333,197.923 75.333 C 198.272 75.333,198.501 75.251,198.502 75.125 C 198.504 75.010,198.550 74.748,198.605 74.542 C 198.724 74.100,197.416 73.994,196.705 74.388 M243.027 75.542 C 242.923 76.115,242.769 76.883,242.685 77.250 C 242.602 77.617,242.455 78.292,242.358 78.750 C 242.261 79.208,242.027 80.296,241.836 81.167 C 241.646 82.037,241.380 83.313,241.245 84.000 C 241.110 84.688,240.954 85.456,240.897 85.708 C 240.798 86.151,240.818 86.167,241.481 86.167 C 241.858 86.167,242.170 86.110,242.174 86.042 C 242.178 85.973,242.253 85.579,242.341 85.167 C 242.659 83.673,243.040 81.738,243.120 81.212 L 243.202 80.674 246.143 80.629 L 249.083 80.583 249.136 80.042 L 249.188 79.500 246.326 79.500 C 243.669 79.500,243.472 79.479,243.577 79.208 C 243.639 79.048,243.767 78.542,243.862 78.083 C 243.956 77.625,244.098 76.950,244.176 76.583 C 244.255 76.217,244.322 75.862,244.326 75.795 C 244.330 75.728,245.774 75.653,247.535 75.629 L 250.737 75.583 250.847 75.042 L 250.958 74.500 247.087 74.500 L 243.216 74.500 243.027 75.542 M303.564 74.755 C 302.221 75.344,301.613 76.864,302.145 78.306 C 302.541 79.383,302.547 79.367,301.593 79.829 C 299.218 80.978,298.336 84.147,299.935 85.787 C 300.914 86.791,303.914 86.624,305.365 85.483 C 306.125 84.886,306.066 84.881,306.500 85.583 C 306.824 86.108,306.935 86.167,307.597 86.167 C 308.487 86.167,308.487 86.167,307.684 84.917 L 307.042 83.917 307.586 82.917 C 308.459 81.310,308.501 80.833,307.766 80.833 C 307.255 80.833,307.159 80.897,307.069 81.292 C 306.680 83.010,306.465 83.001,305.373 81.219 C 304.519 79.825,304.433 79.333,305.045 79.333 C 305.436 79.333,306.651 78.123,306.995 77.390 C 307.975 75.304,305.916 73.723,303.564 74.755 M316.611 74.958 C 316.383 76.070,316.156 77.139,316.001 77.833 C 315.908 78.246,315.721 79.146,315.584 79.833 C 315.345 81.034,315.119 82.087,314.834 83.333 C 314.760 83.654,314.623 84.292,314.528 84.750 C 314.434 85.208,314.306 85.715,314.244 85.875 C 314.138 86.148,314.394 86.167,318.232 86.167 C 321.401 86.167,322.334 86.119,322.336 85.958 C 322.337 85.844,322.383 85.581,322.438 85.375 L 322.539 85.000 319.190 85.000 L 315.842 85.000 315.930 84.458 C 315.978 84.160,316.085 83.654,316.166 83.333 C 316.248 83.012,316.410 82.281,316.525 81.708 L 316.735 80.667 319.673 80.667 L 322.611 80.667 322.790 80.083 L 322.969 79.500 319.971 79.500 L 316.974 79.500 317.077 78.958 C 317.212 78.246,317.479 77.071,317.683 76.292 L 317.847 75.667 321.155 75.667 L 324.464 75.667 324.532 75.083 L 324.600 74.500 320.652 74.500 L 316.704 74.500 316.611 74.958 M345.093 74.708 C 344.757 75.805,344.816 76.000,345.483 76.000 C 346.050 76.000,346.136 75.946,346.217 75.542 C 346.268 75.290,346.361 74.952,346.423 74.792 C 346.519 74.543,346.435 74.500,345.846 74.500 C 345.439 74.500,345.130 74.585,345.093 74.708 M380.664 74.875 C 380.663 75.081,380.617 75.419,380.562 75.625 C 380.469 75.969,380.517 76.000,381.147 76.000 C 381.747 76.000,381.834 75.953,381.836 75.625 C 381.837 75.419,381.883 75.081,381.938 74.875 C 382.031 74.531,381.983 74.500,381.353 74.500 C 380.753 74.500,380.666 74.547,380.664 74.875 M199.842 76.292 C 199.725 76.819,199.603 77.344,199.570 77.458 C 199.537 77.574,199.250 77.667,198.922 77.667 C 198.598 77.667,198.332 77.723,198.331 77.792 C 198.330 77.860,198.284 78.085,198.228 78.292 C 198.138 78.630,198.187 78.667,198.734 78.667 C 199.406 78.667,199.383 78.523,198.991 80.292 C 198.565 82.208,198.469 82.627,198.333 83.167 C 197.641 85.907,198.204 86.788,200.292 86.228 C 201.060 86.023,200.798 85.181,200.000 85.288 C 199.307 85.381,199.262 85.335,199.321 84.583 C 199.345 84.268,199.832 81.871,200.167 80.417 C 200.251 80.050,200.367 79.506,200.423 79.208 C 200.523 78.685,200.554 78.667,201.347 78.667 C 201.943 78.667,202.167 78.602,202.167 78.430 C 202.167 78.300,202.212 78.075,202.268 77.930 C 202.351 77.713,202.231 77.667,201.579 77.667 L 200.789 77.667 200.895 77.042 C 200.954 76.698,201.047 76.173,201.103 75.875 C 201.322 74.706,200.103 75.109,199.842 76.292 M270.020 75.958 C 269.932 76.302,269.812 76.823,269.753 77.116 C 269.657 77.585,269.572 77.654,269.030 77.699 C 268.172 77.770,267.979 78.667,268.822 78.667 C 269.409 78.667,269.417 78.708,269.088 80.101 C 268.956 80.661,268.772 81.561,268.679 82.101 C 268.586 82.641,268.392 83.626,268.248 84.290 C 267.869 86.040,268.241 86.501,269.857 86.285 C 270.633 86.181,270.589 86.214,270.726 85.641 C 270.829 85.211,270.814 85.201,270.191 85.285 C 269.416 85.389,269.277 85.160,269.488 84.125 C 269.567 83.735,269.799 82.554,270.004 81.500 C 270.547 78.700,270.564 78.667,271.417 78.667 C 272.013 78.667,272.144 78.606,272.228 78.292 C 272.390 77.688,272.368 77.667,271.606 77.667 L 270.878 77.667 271.005 77.042 C 271.075 76.698,271.187 76.173,271.254 75.875 C 271.457 74.968,270.252 75.050,270.020 75.958 M305.401 75.661 C 306.373 76.030,306.008 77.446,304.743 78.209 C 303.783 78.790,303.800 78.793,303.456 77.999 C 302.791 76.465,303.926 75.100,305.401 75.661 M187.250 77.934 C 183.893 79.649,183.159 85.304,186.181 86.171 C 188.800 86.922,191.161 85.484,192.156 82.533 C 193.422 78.772,190.667 76.189,187.250 77.934 M216.542 77.962 C 215.696 78.402,215.010 79.171,214.762 79.958 C 214.546 80.645,215.713 80.485,216.156 79.767 C 217.335 77.860,220.926 78.259,220.112 80.207 C 219.845 80.847,219.503 80.974,217.083 81.335 C 214.158 81.770,212.727 83.541,213.715 85.500 C 214.231 86.523,217.163 86.616,218.518 85.654 C 218.949 85.347,218.953 85.348,219.139 85.756 C 219.456 86.453,221.167 86.375,221.167 85.663 C 221.167 85.207,221.127 85.170,220.742 85.267 L 220.316 85.374 220.431 84.479 C 220.493 83.986,220.610 83.457,220.689 83.303 C 220.768 83.148,220.833 82.854,220.833 82.648 C 220.833 82.442,220.904 82.043,220.990 81.762 C 221.972 78.554,221.408 77.496,218.719 77.504 C 217.630 77.507,217.273 77.582,216.542 77.962 M226.417 77.694 C 226.233 77.795,225.876 78.071,225.622 78.306 L 225.162 78.734 225.268 78.200 C 225.372 77.681,225.359 77.667,224.790 77.667 C 224.140 77.667,224.214 77.514,223.750 79.833 C 223.613 80.521,223.433 81.383,223.350 81.750 C 223.132 82.720,222.821 84.151,222.662 84.917 C 222.586 85.283,222.471 85.720,222.406 85.886 C 222.304 86.152,222.368 86.183,222.923 86.136 C 223.672 86.074,223.557 86.357,224.367 82.583 C 224.899 80.104,226.070 78.667,227.557 78.667 C 227.941 78.667,228.158 78.325,228.164 77.708 C 228.167 77.445,226.886 77.435,226.417 77.694 M230.750 77.934 C 227.840 79.418,226.678 84.465,228.909 85.927 C 230.602 87.036,233.674 86.101,234.829 84.125 L 235.194 83.500 234.506 83.500 C 233.918 83.500,233.776 83.572,233.535 83.993 C 232.328 86.095,229.000 85.440,229.000 83.099 L 229.000 82.333 232.232 82.333 C 235.933 82.333,235.667 82.462,235.667 80.673 C 235.667 77.855,233.391 76.586,230.750 77.934 M252.900 77.849 C 252.047 78.263,251.428 78.898,251.090 79.708 L 250.829 80.333 251.487 80.333 C 252.001 80.333,252.168 80.260,252.252 79.995 C 252.723 78.511,255.648 77.969,256.327 79.239 C 256.846 80.208,255.888 81.167,254.401 81.167 C 250.867 81.167,248.323 84.023,250.247 85.831 C 251.021 86.558,254.082 86.394,254.895 85.582 C 255.228 85.248,255.301 85.267,255.363 85.708 C 255.430 86.176,257.333 86.398,257.333 85.939 C 257.333 85.804,257.377 85.579,257.431 85.439 C 257.507 85.242,257.420 85.191,257.056 85.217 C 256.463 85.258,256.451 85.435,257.325 81.333 C 257.849 78.871,257.746 78.308,256.665 77.749 C 255.936 77.372,253.763 77.429,252.900 77.849 M262.046 77.880 C 258.879 79.545,257.787 84.678,260.327 85.958 C 261.535 86.568,263.614 86.414,264.711 85.634 C 265.115 85.347,266.500 83.508,266.500 83.259 C 266.500 83.001,265.149 83.186,265.044 83.458 C 264.217 85.613,261.092 85.920,260.374 83.917 C 259.861 82.485,261.229 79.000,262.304 79.000 C 262.412 79.000,262.500 78.932,262.500 78.849 C 262.500 78.766,262.869 78.647,263.321 78.585 C 264.541 78.417,265.285 78.815,265.541 79.772 C 265.847 80.918,266.833 80.889,266.833 79.734 C 266.833 77.785,264.180 76.758,262.046 77.880 M275.333 77.807 C 273.309 78.826,272.163 80.793,272.169 83.236 C 272.176 85.771,274.864 87.188,277.333 85.958 C 280.581 84.340,281.459 79.099,278.719 77.687 C 278.142 77.390,276.012 77.465,275.333 77.807 M284.917 77.694 C 284.733 77.795,284.376 78.071,284.122 78.306 L 283.662 78.734 283.768 78.200 C 283.873 77.678,283.862 77.667,283.271 77.667 C 282.939 77.667,282.667 77.694,282.667 77.727 C 282.667 77.809,282.336 79.421,282.150 80.250 C 282.067 80.617,281.887 81.479,281.750 82.167 C 281.613 82.854,281.424 83.754,281.330 84.167 C 280.887 86.115,280.893 86.167,281.527 86.167 C 282.093 86.167,282.100 86.158,282.315 85.125 C 282.434 84.552,282.597 83.858,282.676 83.583 C 282.756 83.308,282.871 82.688,282.932 82.205 C 282.994 81.721,283.109 81.286,283.189 81.236 C 283.268 81.187,283.333 81.019,283.333 80.861 C 283.333 80.132,285.112 78.667,285.997 78.667 C 286.309 78.667,286.667 78.126,286.667 77.656 C 286.667 77.440,285.324 77.469,284.917 77.694 M327.565 78.004 L 326.713 78.501 326.792 78.084 C 326.865 77.703,326.821 77.667,326.291 77.667 C 325.647 77.667,325.578 77.814,325.153 80.083 C 324.949 81.168,324.757 82.099,324.507 83.208 C 324.420 83.598,324.276 84.292,324.188 84.750 C 324.100 85.208,323.974 85.720,323.908 85.886 C 323.804 86.152,323.868 86.183,324.431 86.136 C 325.130 86.079,325.080 86.169,325.474 84.250 C 326.178 80.822,326.486 80.014,327.377 79.251 C 328.847 77.993,331.098 78.572,330.776 80.125 C 330.724 80.377,330.611 80.921,330.524 81.333 C 330.437 81.746,330.246 82.683,330.100 83.417 C 329.953 84.150,329.769 85.069,329.689 85.458 L 329.545 86.167 330.167 86.167 C 330.758 86.167,330.794 86.135,330.888 85.542 C 330.941 85.198,331.212 83.829,331.489 82.500 C 332.067 79.727,332.110 78.989,331.725 78.402 C 331.035 77.349,329.019 77.156,327.565 78.004 M336.333 77.809 C 335.249 78.358,334.987 78.581,334.451 79.412 C 332.829 81.927,332.969 85.215,334.732 86.015 C 335.899 86.545,337.847 86.367,338.875 85.636 C 339.127 85.457,339.333 85.392,339.333 85.490 C 339.333 85.761,338.696 87.035,338.359 87.438 C 337.210 88.813,333.833 88.714,333.833 87.304 C 333.833 87.068,333.704 87.000,333.250 87.000 C 332.685 87.000,332.667 87.020,332.667 87.635 C 332.667 89.226,335.421 90.068,337.742 89.186 C 339.506 88.517,340.189 87.360,340.904 83.833 C 341.155 82.596,341.423 81.321,341.499 81.000 C 341.641 80.395,341.905 79.148,342.088 78.208 C 342.191 77.678,342.181 77.667,341.592 77.667 C 341.056 77.667,340.981 77.721,340.890 78.176 L 340.788 78.686 340.352 78.301 C 339.352 77.418,337.542 77.196,336.333 77.809 M350.251 77.718 C 350.068 77.827,349.700 78.061,349.434 78.238 L 348.949 78.559 349.064 78.102 C 349.175 77.659,349.160 77.647,348.549 77.698 C 347.977 77.745,347.911 77.802,347.812 78.333 C 347.708 78.892,347.451 80.087,347.167 81.333 C 347.093 81.654,346.952 82.292,346.853 82.750 C 346.754 83.208,346.559 84.108,346.420 84.750 C 346.091 86.267,346.071 86.195,346.788 86.135 C 347.385 86.085,347.414 86.054,347.529 85.333 C 347.723 84.116,348.165 82.197,348.604 80.667 C 349.146 78.775,352.184 77.759,352.860 79.243 C 353.088 79.742,352.828 81.623,352.159 84.333 C 351.742 86.023,351.761 86.167,352.409 86.167 C 352.734 86.167,353.000 86.139,353.000 86.106 C 353.000 86.025,353.330 84.412,353.517 83.583 C 353.747 82.560,354.195 80.311,354.285 79.730 C 354.536 78.098,351.855 76.760,350.251 77.718 M358.520 77.848 C 355.539 79.170,354.298 84.260,356.554 85.907 C 357.680 86.729,360.632 86.299,361.667 85.163 C 363.015 83.682,363.061 83.500,362.083 83.500 C 361.575 83.500,361.333 83.571,361.333 83.719 C 361.333 84.046,360.501 84.781,359.797 85.074 C 358.137 85.768,356.846 84.995,356.699 83.220 L 356.625 82.333 359.886 82.333 L 363.146 82.333 363.261 81.566 C 363.754 78.279,361.512 76.520,358.520 77.848 M367.379 77.880 C 364.047 79.632,363.120 85.138,365.988 86.138 C 367.795 86.767,369.974 86.102,371.125 84.569 C 371.824 83.638,371.808 83.500,371.000 83.500 C 370.633 83.500,370.333 83.574,370.333 83.665 C 370.333 83.939,369.293 84.846,368.690 85.098 C 367.050 85.783,365.500 84.768,365.500 83.008 L 365.500 82.333 368.833 82.333 L 372.167 82.333 372.167 80.764 C 372.167 78.943,371.938 78.381,370.979 77.842 C 370.112 77.354,368.342 77.373,367.379 77.880 M377.000 77.717 C 376.771 77.825,376.433 78.050,376.250 78.218 C 375.924 78.516,375.915 78.513,375.864 78.095 C 375.776 77.379,374.748 77.471,374.606 78.208 C 374.549 78.506,374.434 79.050,374.351 79.417 C 374.032 80.821,373.823 81.794,373.583 83.000 C 373.446 83.688,373.262 84.587,373.174 85.000 C 372.933 86.134,372.944 86.167,373.570 86.167 C 374.081 86.167,374.151 86.110,374.243 85.625 C 374.300 85.327,374.424 84.746,374.518 84.333 C 374.828 82.981,374.985 82.259,375.097 81.678 C 375.398 80.110,376.832 78.667,378.091 78.667 C 378.383 78.667,378.500 78.575,378.500 78.347 C 378.500 78.171,378.546 77.909,378.601 77.764 C 378.726 77.439,377.661 77.408,377.000 77.717 M385.583 77.912 C 384.768 78.414,384.667 78.424,384.667 78.000 C 384.667 77.730,384.556 77.667,384.083 77.667 C 383.762 77.667,383.500 77.685,383.500 77.708 C 383.499 77.813,382.985 80.487,382.850 81.083 C 382.768 81.450,382.610 82.162,382.500 82.667 C 382.390 83.171,382.231 83.883,382.146 84.250 C 381.722 86.095,381.730 86.167,382.360 86.167 C 382.926 86.167,382.933 86.158,383.148 85.125 C 383.267 84.552,383.424 83.858,383.497 83.583 C 383.569 83.308,383.725 82.633,383.843 82.083 C 384.277 80.053,385.013 79.043,386.346 78.643 C 387.963 78.159,388.817 78.938,388.522 80.629 C 388.246 82.205,387.849 84.191,387.606 85.208 L 387.377 86.167 388.014 86.167 C 388.622 86.167,388.656 86.138,388.751 85.542 C 388.842 84.968,388.953 84.434,389.262 83.083 C 390.076 79.525,390.031 78.563,389.017 77.881 C 388.192 77.326,386.511 77.341,385.583 77.912 M393.975 77.919 C 391.001 79.468,390.198 85.002,392.786 86.105 C 393.812 86.542,396.304 86.221,396.834 85.583 C 397.451 84.839,397.230 85.913,396.536 87.028 C 395.515 88.672,392.488 89.003,391.845 87.542 C 391.513 86.787,390.499 86.724,390.502 87.458 C 390.510 88.783,391.601 89.493,393.635 89.497 C 396.424 89.503,397.894 88.181,398.526 85.098 C 398.622 84.632,398.768 83.950,398.850 83.583 C 398.933 83.217,399.113 82.354,399.250 81.667 C 399.387 80.979,399.576 80.079,399.670 79.667 C 399.764 79.254,399.886 78.635,399.942 78.292 L 400.044 77.667 399.439 77.667 C 398.908 77.667,398.833 77.717,398.833 78.073 C 398.833 78.634,398.604 78.725,398.231 78.312 C 397.388 77.381,395.367 77.194,393.975 77.919 M202.741 78.262 C 202.803 78.589,202.927 79.696,203.018 80.720 C 203.108 81.745,203.251 83.333,203.334 84.250 C 203.417 85.167,203.489 85.977,203.493 86.051 C 203.518 86.511,204.916 86.056,205.189 85.500 C 206.740 82.339,207.834 79.985,207.836 79.804 C 207.838 79.641,207.881 79.649,208.000 79.833 C 208.089 79.971,208.163 80.833,208.165 81.750 C 208.167 82.667,208.217 84.035,208.276 84.792 L 208.383 86.167 209.009 86.167 C 209.613 86.167,209.654 86.128,210.213 85.042 C 210.758 83.983,211.001 83.529,212.461 80.833 C 214.202 77.621,214.188 77.667,213.415 77.667 C 212.870 77.667,212.799 77.731,212.354 78.625 C 211.936 79.467,211.149 80.977,209.814 83.500 L 209.417 84.250 209.311 82.316 C 209.253 81.252,209.151 79.767,209.085 79.015 L 208.964 77.649 208.357 77.699 C 207.681 77.756,207.883 77.429,205.587 82.186 L 204.591 84.250 204.401 82.917 C 204.297 82.183,204.156 80.702,204.089 79.625 L 203.967 77.667 203.298 77.667 L 202.630 77.667 202.741 78.262 M287.408 77.974 C 287.529 78.355,287.759 79.636,288.085 81.750 C 288.424 83.943,288.640 85.155,288.761 85.536 C 289.057 86.467,287.450 88.398,286.459 88.302 C 285.702 88.229,285.518 89.248,286.255 89.433 C 287.666 89.787,288.884 88.564,291.083 84.583 C 291.286 84.217,291.875 83.213,292.393 82.354 C 292.910 81.494,293.333 80.725,293.333 80.645 C 293.333 80.565,293.400 80.500,293.481 80.500 C 293.562 80.500,293.673 80.369,293.727 80.208 C 293.782 80.048,294.090 79.467,294.411 78.917 C 295.131 77.686,295.131 77.667,294.434 77.667 C 293.880 77.667,292.833 78.848,292.833 79.473 C 292.833 79.579,292.758 79.667,292.667 79.667 C 292.575 79.667,292.500 79.749,292.500 79.849 C 292.500 79.950,292.361 80.231,292.190 80.474 C 292.020 80.718,291.693 81.254,291.463 81.667 C 291.234 82.079,290.756 82.904,290.402 83.500 L 289.757 84.583 289.567 83.167 C 289.463 82.387,289.283 81.188,289.167 80.500 C 289.051 79.813,288.910 78.912,288.853 78.500 C 288.750 77.753,288.747 77.750,288.027 77.698 C 287.374 77.651,287.314 77.678,287.408 77.974 M344.445 78.125 C 344.350 78.578,343.762 81.294,343.479 82.583 C 343.283 83.476,342.834 85.885,342.834 86.042 C 342.833 86.110,343.096 86.167,343.417 86.167 C 343.738 86.167,344.000 86.148,344.000 86.125 C 344.001 86.021,344.515 83.347,344.650 82.750 C 344.732 82.383,344.890 81.671,345.000 81.167 C 345.110 80.662,345.269 79.950,345.354 79.583 C 345.780 77.731,345.772 77.667,345.126 77.667 C 344.623 77.667,344.528 77.730,344.445 78.125 M380.112 77.792 C 380.072 77.860,379.989 78.254,379.930 78.667 C 379.870 79.079,379.749 79.735,379.660 80.125 C 379.332 81.577,379.139 82.436,378.988 83.125 C 378.903 83.515,378.763 84.152,378.676 84.542 C 378.285 86.305,378.265 86.167,378.904 86.167 C 379.612 86.167,379.625 86.146,379.919 84.546 C 380.170 83.180,380.629 81.013,381.070 79.115 C 381.215 78.490,381.333 77.909,381.333 77.823 C 381.333 77.638,380.220 77.610,380.112 77.792 M190.569 79.054 C 192.825 81.310,189.210 86.629,186.532 84.996 C 184.048 83.481,186.324 78.351,189.375 78.589 C 189.934 78.633,190.284 78.769,190.569 79.054 M233.388 78.727 C 234.100 79.025,234.500 79.661,234.500 80.494 L 234.500 81.167 231.913 81.167 L 229.327 81.167 229.648 80.542 C 230.464 78.955,232.069 78.176,233.388 78.727 M278.452 79.033 C 280.254 80.726,278.152 85.333,275.577 85.333 C 273.528 85.333,272.808 83.099,274.048 80.592 C 274.971 78.727,277.262 77.916,278.452 79.033 M339.065 78.753 C 341.551 79.932,339.559 85.333,336.638 85.333 C 333.408 85.333,334.122 79.761,337.500 78.611 C 337.974 78.450,338.534 78.501,339.065 78.753 M361.611 79.065 C 361.937 79.367,362.066 79.681,362.127 80.318 L 362.209 81.167 359.608 81.167 L 357.007 81.167 357.202 80.708 C 357.987 78.861,360.415 77.956,361.611 79.065 M370.318 78.862 C 370.760 79.138,371.000 79.718,371.000 80.508 L 371.000 81.167 368.422 81.167 L 365.845 81.167 366.208 80.542 C 367.241 78.768,369.009 78.045,370.318 78.862 M397.315 78.962 C 398.056 79.514,398.288 80.638,397.936 81.960 C 397.139 84.953,394.562 86.253,392.841 84.532 C 392.177 83.867,392.666 80.622,393.561 79.754 C 394.854 78.501,396.292 78.198,397.315 78.962 M304.206 81.917 C 304.581 82.558,304.932 83.121,304.986 83.167 C 305.697 83.774,305.472 84.196,304.059 84.904 C 300.603 86.636,298.918 83.065,302.142 80.841 C 303.230 80.091,303.100 80.024,304.206 81.917 M219.667 82.409 C 219.667 83.781,217.891 85.333,216.320 85.333 C 213.659 85.333,214.700 82.390,217.389 82.314 C 217.771 82.303,218.308 82.237,218.583 82.167 C 219.500 81.934,219.667 81.971,219.667 82.409 M255.810 82.688 C 255.358 84.701,252.799 86.063,251.458 85.004 C 250.288 84.080,251.572 82.352,253.450 82.324 C 253.798 82.318,254.383 82.252,254.750 82.176 C 255.986 81.920,255.983 81.919,255.810 82.688 " stroke="none" fill="#045c94" fill-rule="evenodd"></path><path id="path1" d="M44.333 0.177 C 43.921 0.252,42.871 0.431,42.000 0.574 C 39.684 0.955,38.666 1.148,37.917 1.349 C 37.550 1.447,36.950 1.609,36.583 1.708 C 35.746 1.935,32.530 2.966,32.083 3.151 C 31.237 3.501,30.805 3.678,30.458 3.816 C 27.053 5.171,20.611 8.865,19.209 10.267 C 19.081 10.395,18.925 10.500,18.863 10.501 C 18.801 10.501,18.525 10.707,18.249 10.959 C 17.974 11.211,17.411 11.691,16.999 12.027 C 16.587 12.362,15.702 13.150,15.033 13.777 L 13.815 14.917 14.849 16.037 L 15.882 17.158 16.483 16.640 C 16.813 16.356,17.458 15.775,17.917 15.351 C 19.038 14.311,20.297 13.281,21.638 12.304 C 22.250 11.859,22.925 11.364,23.138 11.205 C 23.352 11.047,23.727 10.804,23.972 10.667 C 24.217 10.529,24.654 10.248,24.943 10.042 C 25.232 9.835,25.520 9.667,25.583 9.667 C 25.647 9.667,25.898 9.525,26.141 9.352 C 26.615 9.016,30.545 7.000,30.728 7.000 C 30.788 7.000,31.155 6.858,31.543 6.685 C 34.059 5.564,37.650 4.455,40.750 3.841 C 42.809 3.434,43.304 3.348,44.127 3.255 L 45.003 3.155 44.960 11.021 L 44.917 18.887 43.833 19.103 C 37.135 20.436,30.414 24.502,26.228 29.750 C 23.941 32.619,24.167 31.951,24.167 35.845 C 24.167 37.703,24.216 39.173,24.277 39.112 C 24.338 39.051,24.586 38.532,24.828 37.959 C 25.603 36.123,25.745 35.833,25.874 35.833 C 25.943 35.833,26.000 35.746,26.000 35.639 C 26.000 35.091,28.687 31.476,30.318 29.827 C 34.186 25.921,38.277 23.577,43.667 22.178 C 43.987 22.095,44.559 21.945,44.936 21.847 C 45.313 21.748,45.778 21.667,45.969 21.667 C 46.161 21.667,46.696 21.585,47.158 21.486 L 48.000 21.306 48.000 10.653 L 48.000 0.000 46.542 0.020 C 45.740 0.031,44.746 0.101,44.333 0.177 M164.918 18.289 C 163.104 18.748,161.691 21.085,161.884 23.304 C 162.408 29.319,171.333 28.874,171.333 22.833 C 171.333 19.546,168.338 17.424,164.918 18.289 M110.162 22.250 C 110.151 23.074,109.556 31.669,109.337 34.167 C 109.245 35.221,109.053 37.583,108.911 39.417 C 108.769 41.250,108.585 43.538,108.501 44.500 C 108.417 45.462,108.271 47.150,108.178 48.250 C 108.084 49.350,107.936 51.075,107.849 52.083 C 107.763 53.092,107.610 54.892,107.510 56.083 C 107.410 57.275,107.257 58.700,107.169 59.250 C 107.082 59.800,106.965 60.775,106.909 61.417 L 106.808 62.583 110.736 62.591 L 114.664 62.598 114.744 62.091 C 114.788 61.812,114.858 60.271,114.899 58.667 C 115.071 52.018,116.611 29.819,116.813 31.083 C 116.919 31.754,117.346 33.548,117.546 34.167 C 117.679 34.579,117.980 35.554,118.216 36.333 C 118.452 37.112,118.920 38.612,119.256 39.667 C 119.592 40.721,119.927 41.808,120.001 42.083 C 120.074 42.358,120.482 43.783,120.907 45.250 C 121.332 46.717,121.861 48.592,122.084 49.417 C 122.306 50.242,122.723 51.704,123.009 52.667 C 123.296 53.629,123.631 54.829,123.754 55.333 C 123.878 55.837,124.054 56.512,124.147 56.833 C 124.239 57.154,124.394 57.698,124.491 58.042 C 124.587 58.385,124.737 58.910,124.823 59.208 C 125.149 60.343,125.527 61.766,125.608 62.167 L 125.692 62.583 129.927 62.583 L 134.161 62.583 134.310 62.167 C 134.989 60.277,135.432 59.068,135.836 58.000 C 136.097 57.313,136.363 56.563,136.427 56.333 C 136.491 56.104,136.676 55.617,136.839 55.250 C 137.001 54.883,137.339 54.021,137.590 53.333 C 138.030 52.127,138.839 49.980,140.742 44.960 C 141.237 43.653,142.060 41.477,142.571 40.125 C 144.644 34.638,145.380 32.703,145.756 31.750 L 146.150 30.750 146.153 33.833 C 146.157 38.189,145.599 58.363,145.399 61.083 L 145.289 62.583 149.464 62.583 L 153.639 62.583 153.633 56.917 C 153.626 49.416,153.966 30.923,154.171 27.670 C 154.260 26.250,154.333 24.375,154.333 23.503 L 154.333 21.917 148.181 21.917 L 142.028 21.917 141.659 23.083 C 140.691 26.142,140.193 27.495,139.316 29.457 C 139.142 29.845,139.000 30.199,139.000 30.243 C 139.000 30.287,138.824 30.719,138.609 31.203 C 138.394 31.687,138.123 32.346,138.006 32.667 C 137.890 32.987,137.698 33.475,137.581 33.750 C 137.464 34.025,137.127 34.850,136.833 35.583 C 136.539 36.317,136.156 37.235,135.983 37.623 C 135.809 38.012,135.667 38.366,135.667 38.410 C 135.667 38.454,135.487 38.886,135.268 39.370 C 135.048 39.854,134.755 40.587,134.617 41.000 C 134.371 41.730,133.939 42.910,133.669 43.583 C 133.595 43.767,133.409 44.292,133.255 44.750 C 133.100 45.208,132.905 45.752,132.820 45.958 C 132.736 46.165,132.598 46.502,132.514 46.708 C 132.429 46.915,132.158 47.646,131.909 48.333 C 130.739 51.575,130.710 51.636,130.582 51.083 C 130.518 50.808,130.328 50.096,130.160 49.500 C 129.992 48.904,129.694 47.779,129.499 47.000 C 129.304 46.221,129.074 45.340,128.989 45.042 C 128.564 43.560,128.462 43.174,128.249 42.243 C 128.123 41.690,127.913 40.902,127.783 40.493 C 127.652 40.084,127.341 39.075,127.091 38.250 C 126.840 37.425,126.576 36.563,126.504 36.333 C 126.431 36.104,126.275 35.579,126.156 35.167 C 126.037 34.754,125.891 34.342,125.832 34.250 C 125.772 34.158,125.514 33.408,125.258 32.583 C 125.001 31.758,124.513 30.221,124.172 29.167 C 123.484 27.041,123.199 25.946,122.502 22.750 L 122.320 21.917 116.243 21.917 C 110.279 21.917,110.167 21.923,110.162 22.250 M187.750 31.676 C 184.381 32.042,182.426 32.742,180.296 34.344 C 173.421 39.516,172.368 53.308,178.385 59.378 C 179.430 60.433,180.123 60.954,181.333 61.599 C 182.113 62.015,182.712 62.239,184.500 62.783 C 187.179 63.598,193.163 63.450,197.342 62.466 L 198.100 62.287 198.403 60.435 C 198.570 59.417,198.770 58.246,198.849 57.833 C 199.234 55.821,199.243 55.435,198.902 55.569 C 195.704 56.823,191.717 57.281,189.297 56.671 C 187.343 56.178,186.724 55.853,185.169 54.500 C 182.902 52.528,182.473 46.143,184.356 42.396 C 186.228 38.671,190.659 37.060,195.833 38.224 C 197.779 38.661,198.875 38.947,199.386 39.148 C 199.644 39.250,199.913 39.333,199.983 39.333 C 200.123 39.333,200.094 38.634,199.803 34.978 L 199.609 32.540 198.513 32.338 C 197.910 32.227,197.042 32.068,196.583 31.985 C 194.206 31.555,190.163 31.413,187.750 31.676 M219.917 31.600 C 217.401 31.965,215.120 33.399,213.478 35.647 C 213.222 35.998,213.211 35.911,213.293 34.176 L 213.381 32.333 209.209 32.333 L 205.037 32.333 205.060 35.292 C 205.073 36.919,205.026 40.350,204.956 42.917 C 204.838 47.275,204.731 49.350,204.333 55.000 C 204.246 56.237,204.126 58.450,204.066 59.917 L 203.957 62.583 208.312 62.583 L 212.667 62.583 212.670 57.000 C 212.678 45.409,213.467 42.006,216.648 39.846 C 218.323 38.709,221.117 38.298,223.480 38.843 C 223.882 38.936,224.225 38.990,224.243 38.964 C 224.345 38.812,223.980 31.913,223.864 31.797 C 223.705 31.639,220.688 31.488,219.917 31.600 M239.500 31.669 C 232.731 32.584,227.894 36.264,226.030 41.917 C 225.262 44.246,225.250 44.340,225.250 47.917 C 225.250 54.377,227.549 58.677,232.360 61.217 C 237.833 64.106,245.704 64.008,251.169 60.982 C 256.870 57.826,259.912 49.475,258.023 42.167 C 257.881 41.618,257.810 41.398,257.516 40.583 C 255.234 34.268,247.734 30.557,239.500 31.669 M161.264 34.958 C 161.200 36.402,161.081 39.683,160.998 42.250 C 160.682 52.041,160.411 56.960,159.994 60.417 C 159.905 61.150,159.833 61.938,159.833 62.167 L 159.833 62.583 164.417 62.583 L 169.000 62.583 169.008 61.417 C 169.075 51.839,169.582 38.879,170.098 33.542 L 170.215 32.333 165.797 32.333 L 161.380 32.333 161.264 34.958 M245.350 38.449 C 248.416 39.776,249.824 42.331,249.831 46.583 C 249.842 53.483,246.284 57.576,240.699 57.090 C 239.498 56.986,239.281 56.926,237.866 56.305 C 232.161 53.801,232.444 41.734,238.279 38.773 C 240.384 37.705,243.318 37.570,245.350 38.449 M75.252 56.542 C 75.079 57.023,74.737 57.792,74.492 58.250 C 73.613 59.897,73.415 60.251,73.331 60.333 C 73.284 60.379,72.947 60.864,72.581 61.410 C 71.575 62.915,71.554 62.940,69.500 65.009 C 67.621 66.901,65.629 68.479,63.917 69.429 C 63.733 69.531,63.315 69.767,62.988 69.954 C 60.593 71.322,56.708 72.591,53.152 73.167 L 51.886 73.371 51.777 78.727 C 51.717 81.673,51.667 86.475,51.667 89.398 L 51.667 94.712 53.708 94.607 C 55.720 94.503,56.365 94.425,59.167 93.946 C 60.612 93.699,62.585 93.254,63.333 93.006 C 63.563 92.930,64.200 92.740,64.750 92.584 C 66.087 92.205,67.601 91.687,68.417 91.330 C 68.783 91.170,69.608 90.824,70.250 90.563 C 75.114 88.579,80.719 84.920,84.873 81.014 C 86.044 79.913,86.045 79.976,84.842 78.761 L 83.864 77.772 83.224 78.327 C 82.871 78.633,82.167 79.265,81.659 79.733 C 80.809 80.515,80.218 81.009,79.030 81.929 C 76.551 83.848,69.712 87.833,68.897 87.833 C 68.844 87.833,68.527 87.953,68.192 88.100 C 65.204 89.411,61.287 90.555,58.000 91.075 C 57.038 91.228,55.913 91.409,55.500 91.477 L 54.750 91.602 54.793 84.759 C 54.848 76.229,54.875 75.865,55.472 75.738 C 55.716 75.685,56.367 75.529,56.917 75.391 C 57.467 75.253,58.217 75.069,58.583 74.982 C 59.204 74.836,60.132 74.506,61.750 73.856 C 66.711 71.864,71.864 67.778,75.046 63.312 L 75.833 62.208 75.833 58.937 C 75.833 55.470,75.754 55.143,75.252 56.542 " stroke="none" fill="#36b641" fill-rule="evenodd"></path><path id="path2" d="" stroke="none" fill="#1c7098" fill-rule="evenodd"></path><path id="path3" d="" stroke="none" fill="#1c7098" fill-rule="evenodd"></path><path id="path4" d="" stroke="none" fill="#1c7098" fill-rule="evenodd"></path></g></svg>