<?xml version="1.0" standalone="no"?>
<!DOCTYPE svg PUBLIC "-//W3C//DTD SVG 20010904//EN"
 "http://www.w3.org/TR/2001/REC-SVG-20010904/DTD/svg10.dtd">
<svg version="1.0" xmlns="http://www.w3.org/2000/svg"
 width="3724.000000pt" height="882.000000pt" viewBox="0 0 3724.000000 882.000000"
 preserveAspectRatio="xMidYMid meet">

<g transform="translate(0.000000,882.000000) scale(0.100000,-0.100000)"
fill="#000000" stroke="none">
<path d="M4235 8809 c-952 -97 -1827 -452 -2552 -1034 -133 -107 -383 -331
-383 -343 0 -4 42 -52 93 -105 l92 -98 119 111 c578 540 1252 902 2031 1093
136 34 380 79 498 93 l57 6 -2 -737 -3 -738 -90 -19 c-243 -50 -461 -126 -700
-243 -439 -215 -832 -553 -1095 -942 l-50 -75 0 -306 c0 -168 4 -302 8 -297 5
6 21 44 37 85 70 182 215 428 361 610 100 126 303 323 434 422 391 295 817
467 1321 533 l46 6 6 172 c4 95 7 542 7 995 l0 822 -77 -1 c-43 -1 -114 -5
-158 -10z"/>
<path d="M7721 7524 c-56 -48 -101 -90 -101 -94 0 -4 49 -54 110 -110 218
-202 448 -475 625 -740 332 -497 546 -1041 638 -1623 l14 -87 -780 2 -780 3
-28 110 c-125 498 -416 979 -804 1328 -124 112 -314 255 -437 327 l-93 55
-320 -5 -319 -5 104 -38 c58 -21 177 -74 265 -117 741 -362 1255 -1042 1380
-1825 9 -55 17 -100 18 -100 1 0 473 1 1050 3 l1047 4 0 54 c0 29 -9 124 -20
211 -108 840 -448 1602 -1014 2272 -93 110 -285 310 -379 394 l-75 67 -101
-86z"/>
<path d="M15354 7107 c-130 -50 -227 -152 -266 -280 -16 -54 -20 -87 -16 -161
3 -84 8 -102 41 -169 65 -131 183 -217 327 -240 186 -28 376 67 458 229 116
232 27 498 -205 607 -61 28 -79 32 -173 34 -90 3 -114 0 -166 -20z"/>
<path d="M26040 6779 c-184 -5 -495 -8 -691 -7 l-357 3 -6 -245 c-38 -1422
-79 -2374 -131 -3040 -19 -245 -35 -456 -35 -470 l0 -25 908 1 c771 1 930 3
1062 17 188 20 376 51 485 78 369 94 719 347 943 681 161 241 267 528 328 888
25 149 30 524 10 688 -64 498 -265 884 -587 1127 -118 89 -303 183 -434 220
-107 31 -277 60 -435 75 -164 16 -668 20 -1060 9z m886 -607 c206 -39 341
-102 464 -219 217 -204 330 -523 330 -926 0 -440 -151 -854 -402 -1099 -207
-204 -401 -285 -793 -330 -120 -14 -828 -19 -841 -6 -6 7 86 2274 103 2510 l6
87 71 4 c39 2 269 3 511 2 397 -2 451 -5 551 -23z"/>
<path d="M10236 6350 c-39 -613 -210 -2652 -251 -3008 -19 -166 -35 -312 -35
-325 l0 -22 359 0 359 -1 6 29 c3 16 6 91 6 167 0 227 133 2268 173 2665 l12
120 24 -105 c13 -58 79 -289 148 -515 69 -225 144 -473 167 -550 23 -77 147
-516 275 -975 l233 -835 387 0 387 0 53 150 c78 217 1061 2818 1068 2825 17
15 -37 -2380 -65 -2850 l-7 -125 381 0 381 0 1 640 c1 960 28 2164 68 3005 l7
135 -574 -2 -573 -1 -7 -24 c-69 -230 -164 -481 -411 -1088 -172 -421 -366
-919 -464 -1188 -92 -254 -171 -459 -175 -455 -4 5 -66 229 -138 498 -147 551
-222 809 -351 1200 -172 523 -226 709 -271 945 l-22 115 -562 0 -561 0 -28
-425z"/>
<path d="M33260 6458 c-63 -15 -224 -50 -358 -77 -134 -27 -245 -50 -246 -52
-2 -2 -9 -98 -15 -214 -6 -115 -14 -236 -18 -267 l-6 -58 -207 0 -207 0 -7
-167 c-3 -93 -9 -216 -13 -275 l-6 -108 197 0 196 0 0 -41 c0 -23 -18 -366
-41 -763 -43 -766 -46 -958 -15 -1071 59 -217 205 -351 443 -406 67 -16 137
-22 289 -26 223 -6 323 2 537 44 120 23 138 29 142 47 3 12 25 131 50 266 25
135 48 255 51 268 4 12 4 22 1 22 -3 0 -63 -14 -133 -32 -108 -26 -149 -32
-254 -32 -111 -1 -131 2 -177 23 -73 33 -127 94 -151 173 -38 123 -38 196 3
1043 8 165 17 342 21 393 l6 92 349 0 349 0 4 23 c3 12 8 136 11 275 l6 252
-350 0 -351 0 0 41 c0 23 5 173 11 335 6 161 9 299 7 306 -2 11 -26 8 -118
-14z"/>
<path d="M17545 5874 c-419 -44 -650 -140 -875 -364 -150 -149 -250 -316 -324
-542 -68 -207 -96 -395 -96 -638 1 -577 200 -987 595 -1222 138 -82 309 -136
519 -164 149 -20 561 -14 730 10 135 19 329 56 338 65 4 3 16 65 27 136 12 72
34 208 51 304 17 96 28 176 26 178 -2 3 -54 -11 -114 -31 -249 -80 -554 -116
-737 -87 -243 40 -447 171 -539 349 -76 147 -113 384 -95 600 37 431 246 706
609 804 72 19 110 22 250 23 207 0 377 -29 613 -105 55 -17 100 -30 101 -28 2
2 -7 140 -18 307 -20 285 -22 304 -41 311 -38 14 -330 69 -425 80 -97 11 -523
21 -595 14z"/>
<path d="M20443 5866 c-232 -44 -397 -151 -552 -358 -24 -32 -45 -58 -47 -58
-1 0 0 81 3 180 l6 180 -379 0 -379 0 -1 -378 c-1 -536 -19 -1021 -64 -1766
-22 -358 -40 -655 -40 -660 0 -8 125 -11 399 -11 l398 0 6 525 c9 849 36 1102
141 1315 100 202 266 339 463 380 98 21 268 19 383 -5 52 -10 95 -18 96 -17 1
1 -3 79 -7 172 -5 94 -13 242 -17 329 l-7 160 -30 8 c-54 16 -294 19 -372 4z"/>
<path d="M22325 5868 c-44 -5 -131 -20 -194 -34 -624 -140 -1011 -523 -1141
-1129 -17 -76 -23 -149 -27 -300 -5 -174 -2 -216 16 -324 50 -296 165 -533
351 -725 108 -112 212 -188 345 -254 239 -118 488 -171 807 -172 676 -1 1151
259 1408 769 231 461 238 1043 17 1475 -202 395 -598 636 -1139 695 -113 13
-329 12 -443 -1z m440 -593 c164 -45 324 -170 397 -310 210 -404 101 -1081
-213 -1322 -332 -254 -833 -185 -1054 146 -169 255 -187 715 -41 1061 99 233
282 383 536 436 84 17 292 11 375 -11z"/>
<path d="M30400 5870 c-151 -12 -274 -28 -445 -56 -152 -25 -452 -88 -461 -96
-2 -3 -13 -70 -24 -149 -11 -79 -29 -195 -40 -258 -12 -62 -19 -116 -16 -118
2 -3 55 14 116 37 510 187 1034 249 1291 151 158 -60 240 -225 179 -359 -70
-154 -182 -209 -655 -317 -647 -148 -914 -264 -1115 -482 -78 -85 -123 -157
-155 -250 -71 -203 -52 -412 56 -632 89 -180 221 -288 434 -354 144 -45 213
-52 490 -52 201 0 290 4 392 19 l132 19 21 81 c36 138 101 360 112 379 5 10 8
20 6 22 -2 3 -37 -6 -78 -19 -139 -45 -228 -59 -370 -59 -239 -1 -368 55 -446
195 -26 48 -29 62 -29 148 0 84 3 101 27 146 14 27 55 77 90 110 110 103 218
149 602 260 266 77 358 113 459 177 l56 36 -5 -47 c-2 -26 -11 -186 -19 -357
-23 -474 -53 -901 -71 -1015 l-5 -35 399 0 399 0 6 330 c7 319 26 751 47 1040
57 776 53 941 -25 1100 -42 86 -79 132 -156 191 -122 94 -280 155 -509 196
-131 23 -505 33 -690 18z"/>
<path d="M35805 5869 c-233 -19 -674 -90 -857 -140 -42 -11 -39 -3 -63 -179
-9 -63 -25 -168 -36 -233 -12 -65 -19 -121 -16 -124 3 -3 41 8 84 25 353 135
693 205 1003 205 150 0 187 -3 255 -22 261 -71 345 -291 180 -470 -87 -94
-204 -139 -573 -222 -492 -110 -783 -213 -967 -340 -41 -28 -114 -92 -160
-141 -68 -71 -94 -108 -129 -181 -108 -224 -100 -458 25 -713 110 -225 321
-351 662 -395 180 -23 743 6 780 40 4 4 23 67 42 139 19 72 48 174 65 225 16
52 30 99 30 104 0 7 -30 1 -72 -12 -133 -42 -227 -57 -363 -58 -208 -2 -316
33 -405 130 -139 152 -102 375 84 507 121 86 214 123 536 216 271 78 362 111
450 166 40 24 75 42 78 39 5 -5 -6 -249 -33 -735 -14 -243 -39 -564 -51 -660
l-6 -45 395 0 394 0 7 89 c3 49 6 144 6 212 0 171 17 571 41 939 56 892 58
991 24 1120 -74 285 -344 456 -806 509 -145 17 -420 19 -604 5z"/>
<path d="M15020 5738 c0 -196 -30 -1108 -50 -1528 -22 -449 -66 -1074 -85
-1185 l-5 -30 424 0 424 0 6 425 c13 842 34 1412 71 1960 8 118 17 253 21 300
3 47 7 95 10 108 l4 22 -410 0 -410 0 0 -72z"/>
<path d="M0 4168 c0 -78 28 -304 56 -458 164 -890 604 -1704 1272 -2351 l143
-139 75 62 c41 35 89 75 106 89 l31 26 -174 174 c-96 96 -218 226 -270 289
-496 593 -806 1269 -922 2013 l-14 87 778 0 778 0 10 -37 c5 -21 19 -74 30
-118 44 -173 116 -359 207 -535 229 -441 582 -817 1022 -1089 l82 -51 328 2
327 3 -70 24 c-100 34 -294 121 -405 181 -447 244 -826 633 -1049 1079 -122
241 -183 442 -236 764 l-6 37 -1049 0 -1050 0 0 -52z"/>
<path d="M7025 3583 c-128 -343 -408 -729 -715 -985 -394 -330 -909 -549
-1416 -604 l-62 -6 -6 -677 c-3 -372 -7 -819 -9 -993 l-3 -318 80 0 c165 0
532 50 780 106 744 168 1446 512 2016 988 129 108 300 265 300 276 0 4 -41 51
-91 104 l-91 96 -131 -120 c-461 -418 -957 -718 -1530 -924 -301 -109 -689
-202 -962 -231 -33 -4 -67 -8 -75 -11 -13 -3 -15 70 -13 634 2 350 6 683 9
739 l6 102 56 11 c179 36 389 98 567 170 118 47 365 177 480 251 306 200 602
487 787 764 l47 70 3 303 c2 166 0 302 -3 302 -4 0 -14 -21 -24 -47z"/>
<path d="M16720 1904 c-211 -41 -348 -189 -338 -365 7 -127 70 -178 288 -233
152 -39 186 -54 226 -99 35 -38 36 -42 31 -97 -6 -67 -24 -107 -74 -156 -54
-55 -113 -77 -216 -82 -110 -6 -167 10 -217 57 -41 39 -60 89 -60 159 l0 43
-52 -3 -53 -3 -3 -80 c-2 -71 0 -86 25 -135 48 -95 147 -140 308 -140 263 1
438 138 462 361 4 43 1 71 -11 103 -32 85 -103 124 -304 172 -173 41 -231 78
-239 156 -3 34 2 55 24 98 52 102 159 156 297 148 131 -7 187 -55 194 -166 l4
-63 52 3 51 3 3 60 c9 163 -91 255 -283 261 -49 1 -101 0 -115 -2z"/>
<path d="M18324 1886 c-66 -29 -99 -83 -129 -211 l-21 -90 -56 -3 c-60 -3 -57
0 -74 -64 -5 -16 2 -18 50 -18 42 0 56 -4 56 -14 0 -8 -31 -163 -70 -345 -38
-182 -70 -333 -70 -336 0 -3 22 -5 49 -5 l50 0 15 73 c9 39 42 196 74 347 l59
275 75 3 76 3 6 31 c3 17 6 34 6 39 0 5 -31 9 -70 9 -80 0 -79 -2 -54 94 28
108 64 143 139 134 37 -4 37 -4 50 60 l7 32 -69 0 c-37 -1 -82 -7 -99 -14z"/>
<path d="M22650 1872 c0 -4 -49 -241 -110 -526 -60 -284 -110 -524 -110 -532
0 -10 14 -14 54 -14 l53 0 31 143 c16 78 41 193 53 255 l24 112 267 0 c147 0
269 3 271 8 3 4 8 26 12 50 l7 42 -266 0 c-206 0 -266 3 -266 13 1 6 17 89 38
182 l37 170 296 3 296 2 10 50 10 50 -353 0 c-195 0 -354 -4 -354 -8z"/>
<path d="M28292 1861 c-71 -24 -115 -63 -154 -136 -33 -60 -30 -152 7 -233 15
-34 26 -64 24 -66 -2 -2 -33 -18 -69 -37 -149 -79 -241 -207 -248 -345 -5 -90
9 -135 60 -190 113 -122 370 -111 535 22 23 19 45 34 50 34 4 0 22 -24 38 -53
l31 -52 67 -3 c37 -2 67 0 67 2 0 3 -28 49 -62 102 -56 88 -60 98 -48 118 51
79 110 215 110 253 0 9 -15 13 -49 13 l-49 0 -7 -40 c-4 -22 -21 -68 -37 -101
l-31 -61 -43 68 c-23 38 -67 107 -97 154 l-55 85 62 35 c33 19 87 60 118 91
45 45 60 68 73 114 43 146 -30 245 -180 244 -33 0 -84 -8 -113 -18z m176 -107
c33 -37 27 -106 -12 -157 -27 -35 -144 -117 -166 -117 -17 0 -70 122 -70 161
0 115 177 196 248 113z m-133 -575 c58 -94 104 -177 101 -185 -16 -43 -169
-123 -251 -131 -141 -15 -233 64 -222 189 6 69 40 132 105 196 40 38 135 102
153 102 4 0 55 -77 114 -171z"/>
<path d="M29480 1828 c-6 -29 -56 -264 -111 -523 -55 -258 -102 -478 -105
-487 -5 -17 17 -18 365 -18 203 0 372 3 374 8 2 4 7 24 11 45 l7 37 -314 0
-314 0 46 210 45 210 276 0 277 0 10 50 10 50 -273 0 c-213 0 -274 3 -274 13
0 6 16 90 37 185 l36 172 307 0 307 0 10 50 10 50 -363 0 -362 0 -12 -52z"/>
<path d="M32134 1853 c-3 -16 -10 -44 -15 -63 -5 -19 -9 -38 -9 -42 0 -5 24
-8 54 -8 59 0 58 -1 71 70 4 19 9 43 11 53 5 15 -2 17 -50 17 -53 0 -56 -2
-62 -27z"/>
<path d="M35447 1843 c-4 -21 -9 -53 -13 -70 l-6 -33 54 0 55 0 12 57 c17 85
18 83 -43 83 l-53 0 -6 -37z"/>
<path d="M18625 1778 c-2 -7 -12 -53 -23 -103 l-18 -90 -56 -3 c-53 -3 -56 -4
-62 -34 -9 -48 -9 -48 44 -48 30 0 50 -4 50 -11 0 -6 -27 -139 -60 -295 -33
-156 -60 -302 -60 -324 0 -31 7 -47 26 -67 24 -24 30 -25 110 -21 46 2 86 7
88 9 3 3 8 23 12 45 l6 40 -60 -4 c-52 -4 -62 -2 -70 15 -8 15 4 90 51 314
l62 294 72 3 c61 2 73 6 77 22 4 11 9 29 12 40 5 19 1 20 -69 20 l-74 0 18 82
c10 44 20 92 24 105 5 22 3 23 -45 23 -32 0 -52 -5 -55 -12z"/>
<path d="M25136 1718 c-9 -40 -19 -88 -22 -105 -6 -32 -8 -33 -61 -33 -55 0
-56 0 -67 -52 -6 -28 -6 -28 49 -28 49 0 56 -2 51 -17 -6 -23 -103 -481 -117
-557 -19 -105 12 -146 110 -146 70 0 110 10 115 29 18 69 21 66 -46 66 -46 0
-63 4 -71 17 -10 15 25 206 100 541 l15 67 73 0 73 0 6 31 c3 17 6 35 6 40 0
5 -31 9 -70 9 -38 0 -70 3 -70 8 0 4 9 45 20 92 26 115 28 110 -29 110 l-49 0
-16 -72z"/>
<path d="M17516 1589 c-116 -27 -233 -129 -291 -252 -86 -180 -85 -371 2 -468
63 -70 101 -84 228 -84 105 0 114 2 178 34 176 86 284 287 275 511 -3 82 -7
102 -31 142 -33 58 -81 95 -143 114 -52 15 -158 17 -218 3z m206 -107 c54 -33
81 -92 82 -176 1 -242 -147 -436 -332 -436 -133 0 -201 72 -202 215 -1 175
101 352 232 404 68 27 170 24 220 -7z"/>
<path d="M20247 1589 c-118 -28 -218 -117 -251 -226 -7 -22 -5 -23 43 -23 49
0 51 2 70 38 28 54 82 98 143 117 94 28 185 15 229 -31 43 -45 24 -154 -31
-181 -14 -6 -79 -19 -145 -28 -143 -19 -206 -32 -261 -56 -100 -42 -164 -137
-164 -244 0 -115 59 -166 200 -173 104 -5 168 11 254 63 32 19 60 35 61 35 2
0 6 -16 9 -35 8 -43 30 -55 98 -55 66 0 77 7 85 53 l5 35 -41 -5 c-39 -5 -41
-4 -41 20 0 14 23 132 50 261 28 130 50 251 50 270 0 78 -46 138 -124 161 -54
16 -178 18 -239 4z m202 -474 c-11 -44 -31 -97 -46 -117 -92 -133 -361 -176
-408 -65 -31 74 27 169 122 201 26 9 105 23 174 31 69 8 137 19 150 24 13 5
25 8 26 7 1 -1 -7 -38 -18 -81z"/>
<path d="M21109 1584 c-28 -8 -68 -33 -99 -61 l-53 -48 7 38 c4 21 10 45 13
53 5 12 -4 15 -48 12 l-53 -3 -78 -364 c-42 -201 -79 -376 -83 -389 -5 -22 -4
-23 47 -20 l52 3 47 220 c26 121 58 245 72 276 49 110 150 189 243 189 l41 0
10 55 10 55 -41 -1 c-23 0 -62 -7 -87 -15z"/>
<path d="M21555 1587 c-120 -40 -220 -128 -279 -245 -50 -100 -68 -186 -64
-303 3 -86 6 -101 33 -145 19 -30 49 -60 79 -79 48 -29 53 -30 170 -30 117 0
124 1 188 33 71 35 145 107 186 180 l23 42 -58 0 c-57 0 -59 -1 -78 -36 -60
-111 -230 -167 -342 -113 -72 35 -116 139 -99 233 l7 36 298 0 c267 0 300 2
305 16 4 9 9 56 13 103 10 146 -33 243 -131 293 -51 27 -190 35 -251 15z m172
-92 c50 -21 72 -42 94 -90 19 -41 25 -120 11 -143 -7 -9 -63 -12 -250 -10
l-241 3 25 50 c82 161 236 242 361 190z"/>
<path d="M23615 1586 c-120 -31 -200 -103 -245 -221 -9 -25 -9 -25 44 -25 52
0 53 1 71 40 36 80 127 130 237 130 127 0 185 -72 142 -179 -20 -50 -36 -56
-222 -82 -159 -22 -232 -45 -294 -92 -104 -80 -129 -247 -47 -324 40 -39 82
-51 170 -52 94 -1 184 25 257 74 l52 36 0 -35 c0 -51 21 -66 90 -66 59 0 90
15 90 45 0 7 3 21 6 29 5 14 0 16 -35 10 -31 -5 -42 -3 -46 9 -4 8 17 121 44
252 28 131 51 260 51 289 0 115 -69 168 -224 173 -51 1 -113 -3 -141 -11z
m211 -460 c-29 -123 -69 -175 -171 -223 -51 -24 -73 -28 -148 -28 -87 0 -89 0
-118 33 -32 36 -37 74 -15 125 32 76 109 113 268 128 62 7 131 17 153 24 22 6
41 11 43 10 2 -2 -4 -33 -12 -69z"/>
<path d="M24448 1581 c-77 -25 -115 -50 -180 -119 -100 -105 -151 -236 -152
-392 -1 -108 12 -156 57 -206 56 -65 97 -79 227 -79 109 0 119 2 180 32 36 18
84 51 107 75 39 40 113 151 113 170 0 4 -24 8 -53 8 -51 0 -54 -2 -70 -35 -48
-100 -148 -165 -257 -165 -83 0 -135 28 -170 90 -36 64 -34 195 3 293 61 156
157 243 286 254 103 10 179 -44 196 -139 7 -38 8 -38 56 -38 l49 0 0 50 c0 89
-39 153 -115 192 -58 30 -200 35 -277 9z"/>
<path d="M25688 1586 c-197 -53 -341 -271 -341 -516 -1 -198 106 -297 312
-288 77 3 96 7 163 41 164 81 271 267 272 477 1 106 -18 164 -73 221 -34 35
-60 51 -100 63 -64 19 -167 20 -233 2z m214 -103 c74 -43 99 -124 80 -257 -31
-209 -165 -356 -325 -356 -119 0 -189 63 -203 182 -8 71 16 185 57 267 38 75
123 155 187 176 61 19 160 14 204 -12z"/>
<path d="M26552 1581 c-35 -12 -70 -35 -102 -66 l-49 -48 9 39 c17 71 15 74
-38 74 l-48 0 -78 -367 c-43 -203 -80 -378 -83 -390 -5 -22 -2 -23 45 -23 40
0 52 4 56 18 2 9 23 107 46 217 24 110 51 222 62 249 45 117 133 193 232 203
54 6 56 7 66 42 17 63 14 71 -27 71 -21 -1 -62 -9 -91 -19z"/>
<path d="M30573 1586 c-23 -8 -69 -32 -102 -55 l-61 -41 7 45 6 45 -49 0 -49
0 -78 -373 c-43 -204 -81 -380 -83 -389 -5 -15 2 -18 45 -18 39 0 51 4 55 18
3 9 26 116 51 237 48 230 72 298 123 356 90 102 261 130 333 53 38 -40 31
-125 -33 -416 l-55 -248 51 0 52 0 56 273 c73 349 72 337 58 386 -16 61 -62
108 -123 126 -61 18 -147 18 -204 1z"/>
<path d="M31377 1590 c-197 -50 -337 -264 -337 -518 0 -144 39 -220 136 -268
50 -24 61 -26 151 -22 110 5 181 30 246 87 l36 33 -15 -54 c-38 -129 -90 -200
-177 -243 -95 -46 -239 -43 -302 7 -13 10 -29 37 -35 59 -11 39 -11 39 -60 39
l-50 0 0 -40 c0 -105 96 -177 249 -187 235 -16 402 98 465 317 15 53 166 754
166 771 0 5 -22 9 -49 9 l-50 0 -12 -61 c-10 -50 -14 -58 -22 -43 -18 34 -62
76 -102 97 -46 23 -174 33 -238 17z m188 -99 c102 -46 139 -164 100 -316 -23
-86 -50 -138 -106 -200 -66 -71 -134 -105 -213 -105 -109 0 -177 58 -198 166
-21 113 30 279 113 369 87 94 210 129 304 86z"/>
<path d="M32660 1591 c-35 -11 -88 -39 -139 -74 -36 -24 -42 -26 -38 -11 3 11
8 32 11 47 l7 28 -52 -3 -53 -3 -81 -385 -82 -385 45 -3 c25 -2 48 0 52 5 4 4
29 109 55 233 26 124 55 247 65 273 55 144 219 231 345 182 53 -20 75 -54 75
-116 0 -23 -25 -158 -55 -301 -30 -142 -55 -263 -55 -268 0 -6 22 -10 49 -10
l48 0 31 143 c111 519 111 520 39 593 -25 25 -59 46 -82 53 -45 12 -147 13
-185 2z"/>
<path d="M33428 1581 c-76 -25 -114 -50 -181 -120 -159 -167 -207 -470 -94
-598 52 -59 116 -83 223 -83 123 0 200 27 286 102 28 24 108 135 108 150 0 4
-25 8 -55 8 -50 0 -56 -2 -69 -28 -18 -35 -83 -95 -128 -118 -18 -9 -65 -19
-104 -22 -141 -9 -214 65 -214 218 l0 70 304 0 305 0 7 56 c3 30 4 92 2 138
-7 126 -53 194 -159 231 -56 20 -161 18 -231 -4z m217 -101 c51 -31 75 -85 75
-165 l0 -65 -245 0 c-135 0 -245 3 -245 6 0 3 14 33 32 66 37 70 121 150 180
172 60 22 156 15 203 -14z"/>
<path d="M34283 1591 c-145 -37 -270 -166 -330 -338 -22 -66 -27 -95 -27 -188
-1 -125 14 -166 77 -222 58 -51 111 -65 223 -61 86 3 108 7 164 34 36 17 82
48 103 68 37 37 107 134 107 148 0 5 -25 8 -55 8 -50 0 -56 -2 -69 -28 -18
-35 -83 -95 -128 -118 -18 -9 -65 -19 -104 -22 -141 -9 -214 64 -214 213 l0
75 304 0 303 0 7 38 c10 64 6 205 -8 245 -36 101 -112 149 -241 153 -44 2 -94
-1 -112 -5z m192 -111 c51 -31 75 -85 75 -165 l0 -65 -246 0 -245 0 7 23 c24
79 130 193 206 221 60 22 156 15 203 -14z"/>
<path d="M35133 1586 c-56 -18 -107 -51 -139 -89 l-25 -32 6 35 c4 19 9 45 12
58 5 21 2 22 -45 22 -43 0 -51 -3 -55 -22 -14 -57 -157 -737 -157 -747 0 -7
19 -11 48 -11 l48 0 48 222 c50 234 80 318 135 380 42 48 123 88 177 88 l42 0
11 50 c6 28 11 53 11 55 0 10 -76 3 -117 -9z"/>
<path d="M35954 1582 c-28 -10 -74 -35 -103 -55 l-52 -38 6 46 7 45 -49 0 -49
0 -79 -372 c-43 -205 -80 -381 -83 -390 -4 -15 3 -18 47 -18 44 0 51 3 56 23
3 12 26 119 51 237 64 301 95 362 219 421 128 61 251 22 262 -83 4 -35 -59
-364 -111 -580 -4 -15 3 -18 47 -18 l52 0 59 281 c74 355 75 390 8 462 -51 54
-189 73 -288 39z"/>
<path d="M36767 1589 c-193 -46 -339 -266 -340 -514 0 -142 39 -222 134 -269
108 -53 290 -27 393 58 l45 37 -15 -53 c-58 -201 -191 -297 -379 -273 -71 8
-116 39 -135 93 -14 41 -15 42 -62 42 l-48 0 0 -40 c0 -105 96 -177 249 -187
148 -10 267 31 355 121 82 84 102 144 195 582 45 210 81 384 81 388 0 3 -22 6
-49 6 l-50 0 -12 -60 -12 -61 -18 29 c-23 39 -75 78 -128 97 -47 16 -143 18
-204 4z m181 -95 c105 -44 146 -166 107 -317 -47 -180 -178 -307 -317 -307
-73 0 -114 17 -155 63 -66 75 -67 226 -2 367 73 160 240 248 367 194z"/>
<path d="M18880 1576 c0 -2 16 -172 35 -377 19 -206 35 -380 35 -387 0 -10 16
-12 62 -10 l62 3 145 307 c80 168 148 305 150 303 4 -4 30 -487 31 -568 l0
-48 56 3 56 3 204 379 c112 209 204 384 204 388 0 4 -22 8 -49 8 l-50 0 -165
-317 c-91 -175 -166 -313 -166 -308 0 6 -7 136 -15 290 -8 154 -15 293 -15
308 0 28 -1 28 -57 25 l-57 -3 -150 -312 c-105 -217 -153 -307 -158 -295 -3 9
-16 130 -28 267 -11 138 -24 271 -27 298 l-6 47 -48 0 c-27 0 -49 -2 -49 -4z"/>
<path d="M26765 1558 c12 -55 125 -728 125 -746 0 -32 -67 -143 -111 -186 -40
-37 -43 -38 -95 -33 -58 6 -55 8 -69 -59 -6 -29 -4 -32 26 -38 106 -21 192 26
274 149 56 85 545 916 545 926 0 6 -23 9 -52 7 l-53 -3 -185 -317 c-102 -174
-187 -314 -190 -311 -3 2 -28 145 -56 316 l-50 312 -57 3 c-56 3 -57 2 -52
-20z"/>
<path d="M32075 1558 c-20 -84 -155 -734 -155 -744 0 -10 14 -14 48 -14 l48 0
78 368 c43 202 80 377 83 390 5 21 2 22 -46 22 -44 0 -51 -3 -56 -22z"/>
<path d="M35395 1568 c-2 -7 -39 -175 -80 -373 -42 -198 -78 -368 -81 -378 -5
-16 0 -18 47 -15 l53 3 76 360 c42 198 80 372 83 388 7 27 7 27 -43 27 -32 0
-52 -5 -55 -12z"/>
</g>
</svg>
