<!DOCTYPE svg PUBLIC "-//W3C//DTD SVG 20010904//EN" "http://www.w3.org/TR/2001/REC-SVG-20010904/DTD/svg10.dtd">
<svg version="1.0" xmlns="http://www.w3.org/2000/svg" width="286px" height="150px" viewBox="0 0 2860 1500" preserveAspectRatio="xMidYMid meet">
<g id="layer101" fill="#332e2f" stroke="none">
 <path d="M18 1113 c-16 -4 -18 -22 -18 -198 l0 -193 103 -40 c90 -35 190 -70 224 -78 6 -1 14 -21 18 -43 7 -40 8 -41 46 -41 33 0 40 4 45 25 3 14 8 25 11 25 20 0 113 -33 113 -41 0 -5 20 -9 46 -9 25 0 75 -7 112 -15 140 -30 400 -74 476 -81 64 -5 78 -4 74 7 -3 8 -18 15 -34 16 -111 10 -555 104 -577 123 -4 3 4 62 18 129 14 68 25 128 25 133 0 5 -17 8 -37 6 l-38 -3 -14 -89 -14 -89 -28 74 c-15 41 -30 82 -33 92 -4 12 -16 17 -40 17 -29 0 -36 -4 -46 -32 -6 -18 -13 -43 -16 -54 -2 -12 -10 -36 -18 -54 -15 -38 -19 -32 -37 68 l-13 72 -34 0 -35 0 7 -52 c4 -29 10 -63 13 -75 l5 -23 -48 21 c-61 27 -170 103 -184 129 -54 100 103 164 435 177 205 8 688 -37 900 -84 l74 -16 -28 -26 c-48 -45 -75 -108 -75 -178 -1 -50 -4 -63 -16 -63 -31 0 -40 23 -40 107 l0 83 -40 0 -40 0 0 -105 c0 -58 -2 -105 -5 -105 -3 0 -19 16 -36 35 -27 30 -37 35 -75 35 l-44 0 0 70 0 70 -36 0 -36 0 4 -75 c2 -41 0 -75 -4 -75 -21 0 -38 15 -38 32 0 55 -75 118 -141 118 -73 0 -139 -60 -139 -128 0 -51 53 -103 112 -109 57 -7 112 11 138 44 16 21 24 23 46 16 27 -9 27 -11 25 -76 l-2 -67 74 0 c60 0 79 4 101 21 14 11 26 27 26 34 0 10 31 5 129 -21 71 -19 150 -44 177 -55 34 -16 72 -22 129 -24 44 -1 121 -9 170 -18 227 -41 373 -52 700 -52 l320 0 0 190 0 189 -70 27 c-262 101 -560 173 -987 239 -152 24 -148 24 -148 6 0 -9 20 -15 63 -20 156 -16 648 -142 780 -200 l37 -16 0 -85 0 -85 -35 0 -35 0 0 95 0 95 -35 0 -35 0 0 -95 c0 -78 -3 -95 -15 -95 -9 0 -15 -9 -15 -25 0 -16 6 -25 15 -25 10 0 15 -10 15 -28 0 -41 30 -64 77 -60 30 2 39 7 41 25 2 16 -3 22 -20 25 -12 2 -24 11 -26 21 -3 14 4 17 32 17 35 0 36 -1 36 -40 0 -37 2 -40 28 -41 15 -1 2 -6 -28 -10 -113 -19 -589 -10 -540 10 9 3 27 14 40 24 27 19 22 40 -14 61 -14 9 -21 7 -33 -11 -19 -28 -43 -30 -43 -4 0 11 24 40 56 67 35 30 57 58 61 76 8 41 26 29 35 -22 11 -61 52 -101 111 -107 91 -11 157 38 157 115 0 107 -133 158 -226 87 -39 -30 -46 -29 -113 20 -22 16 -47 25 -72 25 -45 0 -81 14 -131 52 -58 45 -102 59 -181 57 -40 0 -101 6 -137 14 -224 54 -428 91 -615 112 -77 9 -164 20 -194 25 -53 10 -639 12 -673 3z m864 -340 c36 -32 21 -44 -27 -21 -30 15 -41 25 -32 30 19 12 39 9 59 -9z m1102 2 c8 -23 -1 -38 -47 -77 l-42 -35 3 38 c3 28 12 46 34 64 34 29 44 31 52 10z m280 -4 c38 -42 11 -121 -41 -121 -34 0 -65 53 -52 89 19 51 63 66 93 32z m482 -74 c87 -76 47 -135 -116 -171 -23 -5 -25 -3 -25 34 0 31 4 40 18 40 12 0 17 8 17 25 0 17 -5 25 -17 25 -15 0 -18 10 -18 69 l0 70 49 -27 c26 -14 68 -44 92 -65z m-1896 28 c54 -27 58 -35 34 -59 -37 -38 -94 -4 -94 56 0 16 2 28 5 28 3 0 28 -11 55 -25z m-324 -88 c6 -26 5 -26 -25 -16 -36 13 -35 9 -19 62 l12 40 13 -30 c6 -17 15 -42 19 -56z m894 -26 c9 -19 9 -22 -1 -19 -7 2 -14 15 -16 28 -4 27 -1 25 17 -9z m-266 -12 c-3 -5 -16 -9 -30 -9 -17 0 -24 5 -24 19 0 18 3 19 30 10 16 -6 27 -15 24 -20z m735 -63 c15 -18 15 -19 -9 -13 -14 4 -33 7 -43 7 -17 0 -16 3 5 32 20 29 23 30 26 13 2 -11 11 -29 21 -39z"/>
 </g>
<g id="layer102" fill="#272a7d" stroke="none">
 <path d="M18 1113 c-16 -4 -18 -22 -18 -198 l0 -194 58 -22 c181 -69 237 -89 253 -89 22 0 39 -29 39 -64 0 -24 4 -26 40 -26 34 0 41 4 46 25 3 14 8 25 11 25 20 0 113 -33 113 -41 0 -5 20 -9 46 -9 25 0 75 -7 112 -15 140 -30 400 -74 476 -81 64 -5 78 -4 74 7 -3 8 -18 15 -34 16 -111 10 -555 104 -577 123 -4 3 4 62 18 129 14 68 25 128 25 133 0 5 -17 8 -37 6 l-38 -3 -14 -89 -14 -89 -28 74 c-15 41 -30 82 -33 92 -4 12 -16 17 -40 17 l-34 0 -28 -86 c-16 -50 -30 -81 -34 -73 -4 6 -14 45 -21 85 l-13 74 -34 0 -35 0 7 -52 c4 -29 10 -63 13 -75 l5 -23 -48 21 c-61 27 -170 103 -184 129 -54 100 103 164 435 177 205 8 688 -37 900 -84 l74 -16 -28 -26 c-48 -45 -75 -108 -75 -178 -1 -50 -4 -63 -16 -63 -32 0 -40 23 -40 108 l0 83 -37 -3 -38 -3 -3 -102 c-1 -57 -5 -103 -8 -103 -2 0 -18 16 -35 35 -27 30 -37 35 -75 35 l-44 0 0 71 0 70 -32 -3 -33 -3 0 -73 c0 -39 -3 -72 -7 -72 -18 0 -38 14 -38 27 0 57 -75 123 -140 123 -70 0 -140 -60 -140 -120 0 -62 64 -120 132 -120 49 0 101 21 121 50 13 19 20 21 43 13 27 -9 27 -11 25 -76 l-2 -67 74 0 c60 0 79 4 101 21 14 11 26 27 26 34 0 10 31 5 129 -21 71 -19 150 -44 177 -55 34 -16 72 -22 129 -24 44 -1 121 -9 170 -18 227 -41 373 -52 700 -52 l320 0 0 190 0 189 -70 27 c-262 101 -560 173 -987 239 -152 24 -148 24 -148 6 0 -9 20 -15 63 -20 156 -16 648 -142 780 -200 l37 -16 0 -85 0 -85 -35 0 -35 0 0 95 0 95 -35 0 -35 0 0 -95 c0 -78 -3 -95 -15 -95 -9 0 -15 -9 -15 -25 0 -16 6 -25 15 -25 9 0 15 -9 15 -23 0 -12 7 -33 16 -45 13 -19 24 -22 57 -20 34 2 43 7 45 25 2 16 -3 22 -20 25 -12 2 -24 11 -26 21 -3 14 4 17 32 17 35 0 36 -1 36 -40 0 -37 2 -40 28 -41 15 -1 2 -6 -28 -10 -113 -19 -589 -10 -540 10 9 3 27 14 40 24 27 19 22 40 -14 61 -14 9 -21 7 -33 -11 -18 -26 -38 -30 -46 -8 -4 9 15 33 54 67 39 33 62 62 66 80 8 41 26 29 35 -22 15 -87 100 -131 193 -100 97 32 100 166 5 215 -54 28 -142 9 -173 -36 -14 -20 -9 -22 -106 43 -14 10 -43 18 -63 18 -44 0 -81 15 -130 52 -58 45 -102 59 -181 57 -40 0 -101 6 -137 14 -224 54 -428 91 -615 112 -77 9 -164 20 -194 25 -53 10 -639 12 -673 3z m864 -340 c36 -32 21 -44 -27 -21 -30 15 -41 25 -32 30 19 12 39 9 59 -9z m1102 1 c10 -26 8 -29 -42 -71 l-47 -40 3 38 c3 28 12 46 34 64 34 29 44 31 52 9z m280 -3 c38 -42 11 -121 -41 -121 -34 0 -65 53 -52 89 19 51 63 66 93 32z m482 -74 c87 -76 47 -135 -117 -171 -24 -5 -26 -3 -27 34 -2 34 1 40 18 40 15 0 20 7 20 25 0 19 -5 25 -21 25 -19 0 -20 5 -17 69 l3 69 49 -26 c26 -14 68 -44 92 -65z m-1896 28 c54 -27 58 -35 34 -59 -37 -38 -94 -4 -94 56 0 16 2 28 5 28 3 0 28 -11 55 -25z m-321 -97 c1 -15 -3 -15 -29 -7 -35 13 -34 9 -18 62 l12 40 17 -39 c10 -21 18 -47 18 -56z m891 -17 c9 -19 9 -22 -1 -19 -7 2 -14 15 -16 28 -4 27 -1 25 17 -9z m-266 -12 c-3 -5 -16 -9 -30 -9 -17 0 -24 5 -24 19 0 18 3 19 30 10 16 -6 27 -15 24 -20z m735 -63 c15 -18 15 -19 -9 -13 -14 4 -33 7 -43 7 -17 0 -16 3 5 32 20 29 23 30 26 13 2 -11 11 -29 21 -39z"/>
 </g>
<g id="layer103" fill="#2b447b" stroke="none">
 <path d="M18 1113 c-16 -4 -18 -22 -18 -198 l0 -194 58 -22 c218 -84 292 -107 292 -93 0 16 -23 94 -27 90 -16 -16 -212 105 -233 144 -54 100 103 164 435 177 205 8 688 -37 900 -84 l74 -16 -28 -26 c-46 -43 -75 -109 -74 -171 0 -68 6 -109 14 -104 4 2 9 -3 12 -11 5 -11 -1 -13 -31 -9 -20 3 -54 5 -74 5 -27 0 -38 4 -43 18 -8 25 -49 20 -53 -7 -3 -17 4 -23 40 -32 166 -44 234 -64 275 -82 33 -15 72 -21 128 -23 44 -1 121 -9 170 -18 227 -41 373 -52 700 -52 l320 0 0 190 0 189 -70 27 c-262 101 -560 173 -987 239 -152 24 -148 24 -148 6 0 -9 20 -15 63 -20 154 -16 644 -141 777 -199 19 -8 49 -12 68 -10 26 4 32 2 32 -13 0 -13 18 -29 55 -48 170 -89 191 -178 51 -221 -28 -9 -64 -20 -81 -25 -74 -22 -327 -29 -530 -15 -110 8 -216 17 -236 21 l-36 6 28 31 c51 55 79 187 44 201 -23 8 -18 25 14 55 l29 28 -36 13 c-20 7 -53 26 -74 42 -57 45 -101 59 -181 57 -40 0 -101 6 -137 14 -224 54 -428 91 -615 112 -77 9 -164 20 -194 25 -53 10 -639 12 -673 3z m1676 -284 c-2 -4 4 -13 13 -20 15 -12 16 -12 10 4 -3 9 -2 17 4 17 15 0 23 -31 10 -40 -9 -5 -8 -9 4 -13 9 -4 14 -3 11 2 -3 5 0 11 8 14 33 13 47 -75 35 -222 -3 -38 -8 -45 -36 -59 -44 -21 -55 -6 -19 24 27 24 28 26 10 39 -11 8 -27 12 -36 9 -10 -3 -18 -1 -18 5 0 6 -11 11 -25 11 -14 0 -25 -4 -25 -10 0 -5 -10 -10 -22 -9 -21 0 -22 1 -4 8 19 7 18 8 -5 15 -13 5 -32 7 -41 6 -12 -1 -18 6 -18 19 0 12 -6 20 -12 19 -7 -2 -12 3 -10 10 1 7 -4 20 -13 28 -8 9 -15 26 -15 39 0 12 -7 26 -16 29 -8 3 -12 2 -9 -4 3 -5 -5 -15 -18 -21 -14 -6 -30 -21 -35 -33 -9 -18 -11 -16 -11 17 -1 37 26 113 36 103 3 -3 1 -11 -3 -18 -5 -7 -9 -26 -10 -43 -2 -27 -1 -28 12 -10 10 14 11 21 3 26 -7 4 -3 10 12 14 13 4 31 13 39 20 8 7 31 17 50 23 39 10 150 11 144 1z"/>
 <path d="M1546 795 c-3 -8 -12 -15 -21 -15 -8 0 -15 -7 -15 -15 0 -8 6 -15 14 -15 8 0 16 -7 20 -15 3 -8 11 -15 18 -15 29 0 108 -47 123 -73 14 -23 22 -27 42 -22 19 4 26 1 30 -15 8 -32 26 -23 21 10 -3 17 -1 30 4 30 4 0 8 16 8 35 0 23 -4 33 -12 30 -7 -3 -29 10 -48 28 -50 45 -73 57 -129 62 -37 3 -50 1 -55 -10z"/>
 <path d="M2050 781 c0 -16 9 -22 47 -31 4 -1 9 3 11 9 2 5 -11 17 -27 26 -29 15 -31 15 -31 -4z"/>
 <path d="M790 762 c0 -11 118 -67 126 -60 3 4 1 15 -5 25 -6 10 -11 15 -11 10 0 -4 -18 2 -40 13 -41 21 -70 26 -70 12z"/>
 <path d="M970 693 c0 -14 11 -23 35 -30 31 -10 35 -9 35 7 0 10 -8 20 -17 23 -10 2 -26 8 -35 12 -14 5 -18 2 -18 -12z"/>
 <path d="M1096 641 c-5 -8 43 -31 65 -31 16 0 10 28 -7 34 -23 9 -52 7 -58 -3z"/>
 <path d="M446 604 c-4 -15 -6 -27 -4 -29 12 -9 128 -40 128 -34 0 29 -24 62 -55 74 -49 21 -62 19 -69 -11z"/>
 <path d="M637 563 c-4 -3 -7 -14 -7 -23 0 -13 19 -21 83 -34 355 -72 563 -100 555 -75 -3 8 -18 15 -34 16 -99 9 -422 75 -575 119 -8 2 -18 1 -22 -3z"/>
 </g>
<g id="layer104" fill="#5b6076" stroke="none">
 <path d="M18 1113 c-16 -4 -18 -22 -18 -198 l0 -194 58 -22 c218 -84 292 -107 292 -93 0 16 -23 94 -27 90 -16 -16 -212 105 -233 144 -54 100 103 164 435 177 205 8 688 -37 900 -84 l74 -16 -28 -26 c-46 -43 -75 -109 -74 -171 0 -68 6 -109 14 -104 4 2 9 -3 12 -11 5 -11 -1 -13 -31 -9 -20 3 -54 5 -74 5 -27 0 -38 4 -43 18 -8 25 -49 20 -53 -7 -3 -17 4 -23 40 -32 166 -44 234 -64 275 -82 33 -15 72 -21 128 -23 44 -1 121 -9 170 -18 227 -41 373 -52 700 -52 l320 0 0 190 0 189 -70 27 c-262 101 -560 173 -987 239 -152 24 -148 24 -148 6 0 -9 20 -15 63 -20 154 -16 644 -141 777 -199 19 -8 49 -12 68 -10 26 4 32 2 32 -13 0 -13 18 -29 55 -48 170 -89 191 -178 51 -221 -28 -9 -64 -20 -81 -25 -73 -22 -328 -29 -530 -15 -110 7 -219 18 -241 23 -33 7 -48 5 -75 -9 -19 -10 -45 -18 -58 -19 l-24 0 27 21 c17 14 26 29 24 43 -3 19 -8 21 -69 18 -50 -3 -70 0 -82 12 -8 9 -19 16 -23 16 -18 0 -64 87 -64 122 0 11 -3 18 -7 16 -49 -24 -63 -33 -72 -52 -9 -17 -11 -12 -8 30 2 28 12 62 21 75 l18 24 -7 -23 c-6 -22 -5 -23 17 -17 12 4 30 13 38 20 39 34 165 46 223 21 18 -7 41 -26 51 -41 21 -32 29 -130 16 -190 -10 -45 -7 -53 15 -35 12 10 15 9 15 -6 0 -16 5 -13 25 11 48 59 74 186 40 199 -23 8 -18 25 14 55 l29 28 -36 13 c-20 7 -53 26 -74 42 -57 45 -101 59 -181 57 -40 0 -101 6 -137 14 -224 54 -428 91 -615 112 -77 9 -164 20 -194 25 -53 10 -639 12 -673 3z"/>
 <path d="M2050 781 c0 -16 9 -22 47 -31 4 -1 9 3 11 9 2 5 -11 17 -27 26 -29 15 -31 15 -31 -4z"/>
 <path d="M790 762 c0 -11 118 -67 126 -60 3 4 1 15 -5 25 -6 10 -11 15 -11 10 0 -4 -18 2 -40 13 -41 21 -70 26 -70 12z"/>
 <path d="M970 693 c0 -14 11 -23 35 -30 31 -10 35 -9 35 7 0 10 -8 20 -17 23 -10 2 -26 8 -35 12 -14 5 -18 2 -18 -12z"/>
 <path d="M1096 641 c-5 -8 43 -31 65 -31 16 0 10 28 -7 34 -23 9 -52 7 -58 -3z"/>
 <path d="M446 604 c-4 -15 -6 -27 -4 -29 12 -9 128 -40 128 -34 0 29 -24 62 -55 74 -49 21 -62 19 -69 -11z"/>
 <path d="M637 563 c-4 -3 -7 -14 -7 -23 0 -13 19 -21 83 -34 355 -72 563 -100 555 -75 -3 8 -18 15 -34 16 -99 9 -422 75 -575 119 -8 2 -18 1 -22 -3z"/>
 </g>
<g id="layer105" fill="#a16a39" stroke="none">
 <path d="M18 1113 c-16 -4 -18 -22 -18 -198 l0 -194 58 -22 c165 -63 230 -86 260 -92 28 -6 33 -4 28 11 -2 9 -8 32 -11 50 -4 18 -9 31 -12 29 -16 -17 -212 104 -233 143 -54 100 103 164 435 177 205 8 688 -37 900 -84 l74 -16 -28 -26 c-46 -43 -75 -109 -74 -171 0 -68 6 -109 14 -104 4 2 9 -3 12 -10 7 -17 -24 -19 -66 -3 -20 7 -31 7 -40 -2 -18 -18 -36 -13 -42 12 -9 33 -47 32 -43 -2 3 -22 14 -27 127 -57 68 -18 147 -43 175 -55 36 -15 74 -22 131 -24 44 -1 121 -9 170 -18 227 -41 373 -52 700 -52 l320 0 0 190 0 189 -70 27 c-262 101 -560 173 -987 239 -152 24 -148 24 -148 6 0 -9 20 -15 63 -20 154 -16 644 -141 777 -199 19 -8 49 -13 66 -10 25 4 32 1 36 -14 3 -11 31 -34 62 -51 165 -93 180 -175 42 -217 -28 -9 -64 -20 -81 -25 -39 -12 -338 -33 -373 -26 -15 3 -96 8 -180 11 -85 3 -165 10 -179 16 -38 14 -77 11 -128 -11 -26 -11 -59 -20 -73 -20 l-27 1 28 20 c46 35 36 55 -31 63 -75 8 -117 35 -144 91 -12 25 -26 45 -30 45 -5 0 -20 -12 -35 -26 -14 -14 -27 -23 -30 -21 -2 3 -5 25 -6 49 -1 31 6 56 27 92 25 43 30 47 43 33 14 -14 21 -14 67 0 74 22 166 13 211 -21 40 -31 55 -75 58 -171 1 -40 6 -60 11 -54 16 15 29 10 21 -9 -5 -13 -4 -14 6 -5 19 19 49 104 49 137 0 16 -7 37 -15 46 -18 20 -9 57 16 65 28 9 23 21 -13 36 -18 7 -49 25 -70 41 -58 45 -102 59 -181 57 -40 0 -101 6 -137 14 -224 54 -428 91 -615 112 -77 9 -164 20 -194 25 -53 10 -639 12 -673 3z"/>
 <path d="M2050 780 c0 -11 3 -20 8 -20 4 0 17 -3 30 -6 33 -9 27 13 -8 31 -29 15 -30 15 -30 -5z"/>
 <path d="M796 762 c-6 -10 102 -64 114 -57 5 3 7 12 3 21 -3 8 -8 13 -10 10 -3 -3 -23 4 -44 14 -42 22 -55 24 -63 12z"/>
 <path d="M976 702 c-15 -14 -3 -30 29 -39 30 -10 35 -9 35 6 0 16 -53 44 -64 33z"/>
 <path d="M1102 638 c5 -14 56 -33 65 -24 3 3 0 12 -7 21 -15 18 -64 21 -58 3z"/>
 <path d="M446 604 c-4 -15 -6 -28 -4 -29 9 -9 112 -34 119 -29 17 10 -20 62 -52 73 -47 16 -56 14 -63 -15z"/>
 <path d="M636 554 c-3 -9 -4 -19 -1 -24 9 -15 428 -95 559 -106 64 -5 78 -4 74 7 -3 8 -18 15 -34 16 -99 9 -424 76 -575 119 -9 3 -19 -3 -23 -12z"/>
 </g>
<g id="layer106" fill="#ff7d00" stroke="none">
 <path d="M18 1113 c-16 -4 -18 -22 -18 -198 l0 -194 58 -22 c31 -12 91 -35 132 -51 41 -15 92 -32 114 -37 l38 -9 -6 30 c-3 17 -6 36 -6 43 0 7 -24 23 -52 35 -63 27 -174 103 -188 130 -54 100 103 164 435 177 205 8 688 -37 900 -84 l74 -16 -28 -26 c-46 -43 -75 -109 -74 -171 0 -68 6 -109 14 -104 4 2 10 -3 13 -12 4 -12 2 -15 -9 -11 -8 4 -17 2 -20 -3 -3 -6 -15 -6 -30 0 -13 5 -40 6 -59 3 -31 -5 -36 -3 -36 15 0 11 -8 22 -21 25 -17 5 -20 1 -17 -20 3 -24 11 -28 127 -59 68 -18 147 -43 175 -55 36 -15 74 -22 131 -24 44 -1 121 -9 170 -18 227 -41 373 -52 700 -52 l320 0 0 190 0 189 -70 27 c-262 101 -560 173 -987 239 -152 24 -148 24 -148 6 0 -9 20 -15 63 -20 154 -16 685 -152 767 -196 13 -7 46 -12 72 -11 41 1 48 -1 48 -18 0 -13 18 -29 55 -50 164 -92 179 -174 41 -216 -28 -9 -64 -20 -81 -25 -43 -13 -329 -32 -379 -25 -22 3 -104 7 -181 9 -77 3 -153 9 -168 15 -42 16 -78 13 -122 -9 -22 -11 -55 -20 -75 -20 l-35 1 28 20 c46 35 36 55 -31 63 -75 8 -117 35 -144 91 -12 25 -26 45 -30 45 -5 0 -20 -12 -35 -26 -14 -14 -27 -23 -30 -21 -2 3 -5 25 -6 49 -1 31 6 56 27 92 25 43 30 47 43 33 14 -14 21 -14 67 0 74 22 166 13 211 -21 40 -31 55 -75 58 -171 1 -40 6 -60 11 -54 16 15 29 10 21 -9 -5 -13 -4 -14 6 -5 19 19 49 104 49 139 0 17 -7 37 -15 44 -19 16 -11 49 17 71 20 15 19 16 -11 29 -37 15 -50 8 -30 -17 13 -16 12 -17 -4 -4 -10 8 -16 20 -13 27 6 15 -49 59 -100 80 -21 9 -63 14 -107 13 -40 0 -101 6 -137 14 -224 54 -428 91 -615 112 -77 9 -164 20 -194 25 -53 10 -639 12 -673 3z"/>
 <path d="M2050 790 c0 -11 29 -40 41 -40 19 0 8 27 -16 38 -14 6 -25 7 -25 2z"/>
 <path d="M805 760 c-3 -5 17 -21 44 -35 58 -29 61 -29 61 -12 0 7 -20 23 -45 35 -52 25 -52 25 -60 12z"/>
 <path d="M977 690 c-3 -13 4 -20 29 -28 29 -9 34 -8 34 7 0 9 -13 21 -29 28 -25 9 -30 8 -34 -7z"/>
 <path d="M1105 631 c14 -14 49 -18 55 -6 3 6 -11 11 -30 13 -24 2 -32 0 -25 -7z"/>
 <path d="M449 604 c-5 -15 -8 -28 -7 -29 8 -7 112 -34 116 -30 13 12 -23 65 -50 74 -43 15 -47 14 -59 -15z"/>
 <path d="M640 547 c0 -29 11 -32 310 -86 211 -39 324 -49 318 -30 -3 8 -18 15 -34 16 -100 9 -428 77 -576 119 -14 4 -18 -1 -18 -19z"/>
 </g>
<g id="layer107" fill="#ffa000" stroke="none">
 <path d="M1650 1057 c0 -9 14 -14 38 -15 111 -5 675 -149 803 -205 25 -11 39 -13 46 -6 18 18 57 6 63 -18 3 -14 31 -38 75 -64 81 -48 114 -83 115 -121 0 -45 -44 -75 -155 -103 -87 -23 -327 -35 -482 -25 -79 5 -158 6 -177 3 -22 -3 -51 1 -76 11 -53 21 -87 20 -135 -4 -22 -11 -55 -20 -75 -20 l-35 1 28 20 c46 35 36 55 -31 63 -75 8 -117 35 -144 91 -12 25 -26 45 -30 45 -5 0 -20 -12 -35 -26 -14 -14 -27 -23 -30 -21 -2 3 -5 25 -6 49 -1 31 6 56 27 92 25 43 30 47 43 33 14 -14 21 -14 67 0 74 22 166 13 211 -21 40 -31 55 -75 58 -171 1 -40 6 -60 12 -54 15 15 28 10 20 -8 -5 -14 -4 -15 6 -6 19 19 49 104 49 139 0 17 -7 37 -15 44 -10 8 -13 21 -9 37 5 18 1 28 -15 40 -12 8 -20 21 -17 28 6 16 -48 59 -100 81 -46 19 -175 18 -167 -2 5 -13 -43 -32 -54 -21 -12 12 -71 -45 -98 -95 -22 -41 -29 -66 -29 -108 1 -68 7 -109 15 -104 4 2 10 -3 13 -12 4 -11 2 -15 -8 -11 -8 3 -16 1 -18 -4 -2 -7 -12 -7 -30 0 -15 5 -43 7 -62 4 -29 -4 -36 -2 -36 10 0 9 -9 21 -21 27 -19 10 -20 9 -17 -16 3 -26 9 -29 127 -60 68 -18 147 -43 175 -55 36 -15 74 -22 131 -24 44 -1 121 -9 170 -18 50 -9 110 -18 135 -21 25 -3 90 -11 145 -18 64 -8 215 -13 420 -13 l320 0 0 190 0 189 -75 28 c-270 102 -552 170 -953 233 -186 29 -177 29 -177 12z"/>
 <path d="M805 760 c-3 -5 17 -21 44 -35 58 -29 61 -29 61 -12 0 7 -20 23 -45 35 -52 25 -52 25 -60 12z"/>
 <path d="M980 686 c0 -8 14 -19 30 -25 24 -8 30 -7 30 4 0 14 -29 35 -49 35 -6 0 -11 -6 -11 -14z"/>
 <path d="M1106 631 c5 -5 19 -12 32 -16 16 -5 22 -2 22 9 0 11 -10 16 -32 16 -19 0 -28 -4 -22 -9z"/>
 </g>
<g id="layer108" fill="#7c86a9" stroke="none">
 <path d="M1577 940 c-9 -11 -27 -20 -39 -20 -69 0 -142 -104 -142 -200 1 -63 7 -110 13 -104 3 3 10 -4 15 -14 50 -90 176 -149 261 -123 l30 9 -30 1 -30 2 28 20 c46 35 36 55 -31 63 -75 8 -117 35 -144 91 -12 25 -26 45 -30 45 -5 0 -20 -12 -35 -26 -14 -14 -27 -23 -30 -21 -2 3 -5 25 -6 49 -1 31 6 56 27 92 25 43 30 47 43 33 14 -14 21 -14 67 0 74 22 166 13 211 -21 40 -31 55 -75 58 -171 1 -40 6 -60 12 -54 15 15 28 10 20 -8 -5 -14 -4 -15 6 -6 19 19 49 104 49 139 0 17 -7 37 -15 44 -10 8 -13 21 -9 37 5 18 1 28 -15 39 -11 8 -21 23 -21 33 0 19 -56 63 -103 80 -16 6 -54 11 -85 11 -45 0 -61 -4 -75 -20z"/>
 </g>
<g id="layer109" fill="#b89b5e" stroke="none">
 <path d="M1577 940 c-9 -11 -27 -20 -39 -20 -69 0 -142 -104 -142 -200 1 -63 7 -110 13 -104 3 3 10 -4 15 -14 51 -90 178 -150 261 -122 30 10 30 10 2 6 -33 -4 -48 13 -18 21 25 6 38 42 20 54 -8 5 -29 9 -47 9 -52 0 -106 34 -136 85 -23 39 -30 44 -46 35 -10 -5 -22 -20 -26 -32 l-6 -21 -14 24 c-18 33 -17 77 5 124 23 51 46 71 64 57 10 -8 24 -8 53 -1 48 14 182 7 209 -10 44 -28 64 -75 80 -183 8 -52 31 -56 55 -8 27 53 27 106 -1 121 -15 8 -18 14 -10 22 18 18 13 38 -14 58 -13 11 -22 26 -19 33 5 14 -53 58 -99 75 -16 6 -54 11 -85 11 -45 0 -61 -4 -75 -20z"/>
 </g>
<g id="layer110" fill="#a6a8ee" stroke="none">
 <path d="M1593 946 c7 -16 -13 -26 -51 -26 -73 0 -146 -102 -146 -200 1 -71 7 -109 17 -103 4 2 7 0 7 -4 0 -17 91 -104 123 -118 17 -7 54 -16 82 -21 46 -6 49 -6 36 10 -13 15 -12 18 7 23 26 6 40 42 21 54 -8 5 -29 9 -47 9 -52 0 -106 34 -136 85 -23 39 -30 44 -46 35 -10 -5 -22 -19 -25 -30 -11 -33 -23 -23 -31 25 -11 76 44 186 79 157 10 -8 24 -8 53 -1 48 14 182 7 209 -10 44 -28 64 -75 80 -183 8 -52 31 -56 55 -8 26 52 26 106 0 120 -17 9 -18 14 -8 30 10 16 8 23 -12 45 -14 15 -25 32 -25 40 0 17 -44 51 -89 70 -48 20 -160 21 -153 1z"/>
 </g>
<g id="layer111" fill="#f2f4fe" stroke="none">
 <path d="M1591 956 c2 -2 40 -6 84 -9 48 -3 72 -2 60 3 -19 8 -153 14 -144 6z"/>
 <path d="M1575 920 c-16 -6 -36 -8 -43 -5 -26 9 -72 -26 -102 -78 -16 -28 -30 -59 -30 -67 0 -8 13 8 29 35 16 28 41 61 56 75 24 22 28 23 38 9 8 -11 35 -18 89 -22 132 -9 179 -45 245 -183 18 -38 20 -40 31 -23 22 34 12 99 -14 99 -16 0 -18 18 -5 38 8 14 -58 83 -107 110 -31 17 -148 24 -187 12z"/>
 <path d="M1479 589 c-14 -28 4 -65 43 -85 25 -13 31 -13 53 2 35 23 31 39 -19 74 -53 36 -62 37 -77 9z"/>
 </g>

</svg>