<!DOCTYPE svg PUBLIC "-//W3C//DTD SVG 20010904//EN" "http://www.w3.org/TR/2001/REC-SVG-20010904/DTD/svg10.dtd">
<svg version="1.0" xmlns="http://www.w3.org/2000/svg" width="666px" height="262px" viewBox="0 0 6660 2620" preserveAspectRatio="xMidYMid meet">
<g id="layer101" fill="#003165" stroke="none">
 <path d="M20 2455 l0 -85 43 0 c49 0 67 13 67 50 0 34 -17 50 -52 50 -25 0 -28 3 -28 35 0 24 -5 35 -15 35 -12 0 -15 -16 -15 -85z m75 -35 c0 -8 -10 -16 -22 -18 -18 -3 -23 2 -23 18 0 16 5 21 23 18 12 -2 22 -10 22 -18z"/>
 <path d="M162 2517 c-31 -33 -30 -96 1 -125 25 -24 93 -30 127 -12 28 15 42 67 29 107 -13 41 -35 53 -92 53 -33 0 -49 -6 -65 -23z m110 -24 c35 -32 10 -93 -39 -93 -25 0 -63 32 -63 53 0 48 65 74 102 40z"/>
 <path d="M350 2455 c0 -61 4 -85 13 -85 6 0 36 25 64 57 l53 58 0 -57 c0 -45 3 -58 15 -58 12 0 15 16 15 85 0 74 -2 85 -17 85 -10 0 -39 -26 -65 -56 l-48 -55 0 55 c0 43 -3 56 -15 56 -12 0 -15 -16 -15 -85z"/>
 <path d="M580 2470 l0 -70 -30 0 c-20 0 -30 -5 -30 -15 0 -12 15 -15 75 -15 60 0 75 3 75 15 0 10 -10 15 -30 15 l-30 0 0 70 c0 56 -3 70 -15 70 -12 0 -15 -14 -15 -70z"/>
 <path d="M680 2455 c0 -78 2 -85 20 -85 18 0 20 7 20 85 0 78 -2 85 -20 85 -18 0 -20 -7 -20 -85z"/>
 <path d="M740 2455 l0 -85 50 0 c38 0 50 4 50 15 0 10 -10 15 -30 15 -20 0 -30 5 -30 15 0 10 10 15 30 15 23 0 30 4 30 20 0 16 -7 20 -30 20 -28 0 -30 3 -30 35 0 28 -4 35 -20 35 -18 0 -20 -7 -20 -85z"/>
 <path d="M860 2455 c0 -69 3 -85 15 -85 12 0 15 16 15 85 0 69 -3 85 -15 85 -12 0 -15 -16 -15 -85z"/>
 <path d="M941 2521 c-42 -42 -35 -115 13 -140 34 -18 110 -10 114 12 3 15 -2 17 -37 11 -32 -5 -46 -3 -61 11 -55 50 14 120 81 84 18 -9 20 -8 17 13 -3 20 -9 23 -55 26 -41 2 -56 -1 -72 -17z"/>
 <path d="M1090 2455 c0 -78 2 -85 20 -85 18 0 20 7 20 85 0 78 -2 85 -20 85 -18 0 -20 -7 -20 -85z"/>
 <path d="M1140 2533 c0 -5 14 -43 32 -85 39 -95 55 -99 87 -25 12 28 29 67 37 85 13 30 13 32 -4 32 -10 0 -24 -11 -30 -25 -8 -18 -19 -25 -40 -25 -21 0 -32 7 -40 25 -10 23 -42 36 -42 18z"/>
 <path d="M1429 2527 c-29 -22 -39 -55 -39 -131 l0 -76 35 0 35 0 0 73 c0 77 9 97 45 97 36 0 45 -20 45 -97 l0 -73 35 0 35 0 0 76 c0 116 -22 143 -115 143 -33 0 -67 -5 -76 -12z"/>
 <path d="M1650 2430 l0 -110 33 0 c26 0 41 10 84 57 l52 58 1 -57 c0 -58 0 -58 30 -58 l30 0 0 110 0 110 -27 0 c-22 0 -40 -14 -80 -61 l-53 -61 0 61 0 61 -35 0 -35 0 0 -110z"/>
 <path d="M1920 2430 l0 -110 35 0 35 0 0 110 0 110 -35 0 -35 0 0 -110z"/>
 <path d="M2052 2430 l-51 -110 37 0 c35 0 38 3 61 56 l24 55 25 -56 c23 -51 27 -55 59 -55 19 0 33 4 31 9 -1 5 -23 54 -48 110 -61 138 -70 137 -138 -9z"/>
 <path d="M2260 2430 l0 -110 80 0 c79 0 80 0 80 25 0 23 -3 25 -50 25 -38 0 -50 4 -50 15 0 11 12 15 50 15 47 0 50 2 50 25 0 23 -3 25 -50 25 -43 0 -50 3 -50 20 0 18 7 20 55 20 52 0 55 1 55 25 0 25 -1 25 -85 25 l-85 0 0 -110z"/>
 <path d="M2460 2430 l0 -110 68 0 c54 0 72 4 85 18 19 21 23 72 6 89 -7 7 -3 25 15 62 l26 51 -38 0 c-36 0 -40 -3 -57 -40 -10 -22 -24 -40 -32 -40 -9 0 -13 13 -13 40 0 38 -2 40 -30 40 l-30 0 0 -110z m99 -33 c13 -16 5 -27 -21 -27 -11 0 -18 7 -18 20 0 23 22 27 39 7z"/>
 <path d="M2683 2533 c-11 -4 -19 -63 -9 -63 2 0 19 6 37 14 34 13 59 12 59 -4 0 -4 -15 -13 -32 -20 -68 -27 -92 -66 -68 -110 10 -19 71 -42 93 -35 7 2 24 6 40 9 20 5 27 12 27 31 0 28 -2 29 -46 16 -57 -16 -61 5 -7 33 28 14 53 32 57 41 22 58 -13 95 -86 94 -29 0 -59 -3 -65 -6z"/>
 <path d="M2860 2430 l0 -110 35 0 35 0 0 110 0 110 -35 0 -35 0 0 -110z"/>
 <path d="M2970 2430 l0 -110 71 0 c106 0 148 31 149 108 0 83 -38 112 -150 112 l-70 0 0 -110z m135 46 c11 -8 18 -26 18 -46 0 -38 -23 -60 -65 -60 -28 0 -28 1 -28 60 0 59 0 60 28 60 16 0 37 -6 47 -14z"/>
 <path d="M3182 2531 c2 -4 21 -54 43 -110 l40 -102 39 3 39 3 48 105 47 105 -31 3 c-23 3 -35 -2 -46 -17 -19 -30 -97 -30 -106 -1 -5 15 -15 20 -42 20 -19 0 -33 -4 -31 -9z m140 -98 c-5 -10 -11 -24 -13 -31 -2 -7 -9 1 -16 18 -11 28 -10 30 13 30 20 0 23 -3 16 -17z"/>
 <path d="M3450 2431 l0 -111 73 0 c86 0 116 13 140 60 22 44 15 96 -19 130 -22 22 -35 25 -109 29 l-85 3 0 -111z m150 27 c13 -25 13 -31 0 -55 -12 -22 -24 -29 -53 -31 l-37 -3 0 61 0 61 37 -3 c29 -2 41 -9 53 -30z"/>
 <path d="M3794 2506 c-28 -28 -34 -42 -34 -76 0 -34 6 -48 34 -76 33 -33 55 -40 116 -35 59 4 70 10 70 42 0 26 -3 30 -17 24 -73 -28 -133 -8 -133 45 0 53 48 70 128 45 19 -7 22 -4 22 23 0 35 -16 42 -98 42 -48 0 -58 -4 -88 -34z"/>
 <path d="M3992 2531 c2 -4 21 -54 43 -110 l40 -102 39 3 39 3 48 108 48 107 -38 0 c-30 0 -40 -4 -44 -20 -4 -16 -14 -20 -50 -20 -37 0 -47 4 -52 20 -5 15 -15 20 -42 20 -19 0 -33 -4 -31 -9z m140 -98 c-5 -10 -11 -24 -13 -31 -2 -7 -9 1 -16 18 -11 28 -10 30 13 30 20 0 23 -3 16 -17z"/>
 <path d="M4290 2455 l0 -85 -40 0 c-36 0 -40 -2 -40 -25 l0 -25 110 0 110 0 0 25 c0 23 -4 25 -40 25 l-40 0 0 85 0 85 -30 0 -30 0 0 -85z"/>
 <path d="M4478 2511 c-29 -26 -33 -35 -33 -81 0 -46 4 -55 33 -81 19 -17 44 -29 60 -29 18 0 23 -3 14 -9 -10 -6 -11 -13 -1 -34 10 -22 19 -27 47 -27 l36 0 -27 28 c-33 35 -34 42 -2 42 14 0 39 13 57 29 29 26 33 35 33 81 0 46 -4 55 -33 81 -28 25 -40 29 -92 29 -52 0 -64 -4 -92 -29z m130 -37 c33 -23 27 -73 -10 -94 -25 -13 -31 -13 -55 0 -38 21 -44 71 -11 94 12 9 29 16 38 16 9 0 26 -7 38 -16z"/>
 <path d="M4730 2430 l0 -110 30 0 30 0 0 85 0 85 55 0 c52 0 55 1 55 25 0 25 -1 25 -85 25 l-85 0 0 -110z"/>
 <path d="M4920 2430 l0 -110 35 0 35 0 0 110 0 110 -35 0 -35 0 0 -110z"/>
 <path d="M5071 2526 c-32 -18 -50 -53 -51 -99 0 -31 7 -46 34 -73 33 -33 55 -40 116 -35 59 4 70 10 70 42 0 28 -2 31 -22 24 -80 -25 -128 -8 -128 45 0 53 48 70 128 45 19 -7 22 -4 22 23 0 22 -6 31 -22 36 -39 10 -122 6 -147 -8z"/>
 <path d="M5254 2523 c4 -10 23 -60 43 -111 l37 -93 39 3 40 3 43 99 c24 54 44 103 44 107 0 5 -15 9 -34 9 -25 0 -35 -5 -39 -20 -4 -16 -14 -20 -50 -20 -37 0 -47 4 -52 20 -5 15 -15 20 -42 20 -29 0 -34 -3 -29 -17z m134 -98 c-12 -27 -23 -26 -31 5 -4 16 0 20 19 20 21 0 23 -2 12 -25z"/>
 <path d="M5590 2455 l0 -85 55 0 c46 0 60 4 80 25 31 30 33 82 4 119 -18 23 -28 26 -80 26 l-59 0 0 -85z m115 31 c28 -43 -2 -86 -61 -86 -22 0 -24 3 -24 55 l0 55 35 0 c25 0 39 -6 50 -24z"/>
 <path d="M5770 2455 l0 -85 55 0 c42 0 55 3 55 15 0 10 -11 15 -35 15 -28 0 -35 4 -35 20 0 16 7 20 30 20 20 0 30 5 30 15 0 10 -10 15 -30 15 -23 0 -30 4 -30 20 0 16 7 20 35 20 24 0 35 5 35 15 0 12 -13 15 -55 15 l-55 0 0 -85z"/>
 <path d="M5890 2455 c0 -78 2 -85 20 -85 18 0 20 7 20 70 l0 70 35 0 c24 0 35 5 35 15 0 12 -13 15 -55 15 l-55 0 0 -85z"/>
 <path d="M6100 2455 l0 -85 48 0 c54 0 72 12 72 50 0 34 -17 50 -52 50 -25 0 -28 3 -28 35 0 28 -4 35 -20 35 -18 0 -20 -7 -20 -85z m80 -35 c0 -13 -7 -20 -20 -20 -13 0 -20 7 -20 20 0 13 7 20 20 20 13 0 20 -7 20 -20z"/>
 <path d="M6230 2455 l0 -85 55 0 c42 0 55 3 55 15 0 11 -11 15 -40 15 -33 0 -40 3 -40 20 0 16 7 20 35 20 24 0 35 5 35 15 0 10 -11 15 -35 15 -28 0 -35 4 -35 20 0 17 7 20 40 20 29 0 40 4 40 15 0 12 -13 15 -55 15 l-55 0 0 -85z"/>
 <path d="M6350 2454 l0 -85 46 3 c57 4 74 23 58 66 -9 24 -8 33 12 58 29 35 30 44 7 44 -10 0 -32 -17 -50 -37 l-32 -38 -1 38 c0 30 -4 37 -20 37 -18 0 -20 -7 -20 -86z m68 -37 c2 -10 -3 -17 -12 -17 -10 0 -16 9 -16 21 0 24 23 21 28 -4z"/>
 <path d="M6506 2518 c-11 -15 -16 -45 -16 -85 0 -56 2 -63 20 -63 17 0 19 8 22 68 3 66 4 67 32 70 37 5 46 -10 46 -80 0 -45 3 -58 15 -58 12 0 15 15 15 73 0 43 -5 78 -12 85 -7 7 -33 12 -59 12 -38 0 -51 -5 -63 -22z"/>
 <path d="M6550 2364 c0 -16 23 -44 35 -44 18 0 19 10 1 33 -12 16 -36 24 -36 11z"/>
 <path d="M2114 1993 c-12 -179 -11 -1699 0 -1865 8 -130 18 -158 31 -91 20 104 21 1953 0 2056 -4 20 -11 37 -15 37 -4 0 -12 -62 -16 -137z"/>
 <path d="M825 1979 c-140 -18 -305 -82 -422 -165 -123 -87 -261 -257 -316 -389 -23 -56 -47 -131 -61 -197 l-6 -28 109 0 109 0 7 40 c11 62 87 209 144 278 100 120 249 213 396 248 89 21 240 21 327 0 246 -58 446 -240 529 -480 l28 -81 107 -3 106 -3 -7 33 c-78 396 -406 698 -810 747 -101 12 -139 12 -240 0z"/>
 <path d="M810 1743 c-75 -12 -210 -70 -260 -111 l-25 -21 37 -15 c47 -20 72 -21 65 -2 -3 7 1 23 9 35 23 33 92 28 194 -14 47 -19 90 -35 97 -35 6 0 13 12 15 27 7 59 89 59 220 2 74 -32 103 -37 95 -15 -3 8 3 26 13 39 23 29 20 33 -58 66 -100 42 -291 63 -402 44z"/>
 <path d="M3157 1693 c-18 -5 -18 -7 5 -97 5 -21 7 -40 5 -42 -2 -3 -13 27 -23 67 l-18 71 -64 -7 c-87 -9 -234 -50 -311 -86 -35 -16 -62 -31 -60 -33 2 -2 46 -34 98 -71 l94 -67 36 17 c94 45 244 85 322 85 l49 0 2 58 2 57 3 -52 4 -53 38 0 37 0 22 68 c12 38 22 71 22 75 0 4 -24 7 -54 7 -44 0 -55 -4 -59 -17 -4 -14 -5 -12 -6 5 -1 20 -5 22 -63 21 -35 -1 -71 -3 -81 -6z"/>
 <path d="M3431 1659 c-5 -13 -16 -41 -25 -63 -24 -58 -22 -63 37 -69 28 -3 72 -9 97 -13 l46 -6 48 56 47 56 -27 10 c-26 10 -31 8 -62 -27 l-34 -38 26 37 c14 20 26 39 26 41 0 3 -16 8 -36 12 -28 5 -39 2 -50 -12 -14 -17 -14 -16 -4 5 8 17 8 22 -3 22 -8 0 -28 3 -46 6 -26 5 -32 3 -40 -17z"/>
 <path d="M656 1622 c-4 -6 -4 -23 0 -37 6 -24 4 -25 -32 -25 -22 0 -58 9 -81 19 l-42 20 -65 -70 c-37 -38 -66 -73 -66 -77 0 -9 122 -62 141 -62 6 0 8 9 4 19 -7 23 26 61 53 61 35 -1 109 -21 179 -50 39 -17 74 -30 77 -30 3 0 6 11 6 25 0 15 10 31 25 41 22 14 34 15 80 6 31 -6 86 -25 124 -42 38 -16 74 -30 79 -30 5 0 10 12 10 27 0 29 25 53 56 53 31 0 112 -24 183 -54 35 -14 65 -26 68 -26 3 0 5 11 5 25 0 14 9 30 20 37 11 7 20 18 20 24 0 6 -34 44 -76 83 -65 63 -80 72 -107 69 -29 -3 -32 -6 -29 -35 2 -32 1 -33 -34 -33 -20 0 -67 14 -106 31 -86 38 -174 50 -184 25 -3 -9 -1 -22 5 -30 31 -37 -47 -35 -139 5 -78 33 -163 48 -174 31z"/>
 <path d="M3650 1561 c-30 -27 -51 -53 -47 -57 5 -5 32 -17 60 -26 l52 -17 63 37 c56 32 60 38 47 51 -13 14 -18 14 -38 2 -20 -13 -21 -13 -8 2 11 14 11 18 -2 23 -9 3 -21 3 -27 -1 -5 -3 -10 0 -10 8 0 12 -20 28 -33 27 -1 0 -27 -22 -57 -49z"/>
 <path d="M2590 1507 c-68 -54 -103 -94 -138 -161 -23 -44 -27 -63 -27 -141 0 -78 4 -97 27 -145 29 -58 99 -137 159 -177 l37 -24 83 52 c46 29 86 54 88 56 2 1 -14 22 -36 46 -108 117 -90 269 42 369 25 18 44 35 45 38 0 9 -197 130 -211 130 -8 0 -39 -20 -69 -43z"/>
 <path d="M3915 1490 c-4 -6 0 -19 9 -29 22 -25 23 -213 1 -231 -27 -22 -16 -30 45 -30 47 0 60 3 60 15 0 8 -4 15 -10 15 -6 0 -10 45 -10 115 l0 115 39 0 c24 0 48 -8 65 -21 35 -27 55 -13 40 28 l-9 28 -112 3 c-73 2 -114 -1 -118 -8z"/>
 <path d="M4164 1488 c-4 -6 0 -16 8 -22 8 -6 25 -40 37 -76 12 -36 36 -94 54 -130 27 -54 36 -65 57 -65 20 0 30 10 52 55 15 30 39 90 54 133 15 42 31 77 36 77 4 0 8 9 8 20 0 18 -7 20 -55 20 -41 0 -55 -4 -55 -14 0 -8 4 -17 9 -21 6 -3 6 -17 -1 -35 -9 -28 -13 -30 -63 -30 -50 0 -54 2 -64 30 -6 18 -6 30 0 30 5 0 9 9 9 20 0 17 -7 20 -39 20 -22 0 -43 -5 -47 -12z m176 -133 c0 -2 -7 -23 -17 -46 l-16 -42 -18 34 c-26 50 -24 59 16 59 19 0 35 -2 35 -5z"/>
 <path d="M4709 1477 c-39 -26 -69 -79 -69 -122 0 -17 10 -51 23 -75 39 -79 136 -111 222 -76 31 13 35 19 35 50 0 44 -13 45 -47 6 -33 -40 -88 -42 -124 -4 -20 22 -24 36 -24 91 0 59 3 67 28 89 38 33 86 32 127 -2 36 -31 60 -22 41 15 -29 54 -150 70 -212 28z"/>
 <path d="M4950 1480 c0 -11 4 -20 9 -20 4 0 21 -35 36 -77 46 -130 82 -193 109 -193 19 0 29 13 58 78 20 42 43 101 52 129 10 29 22 55 27 58 5 4 9 15 9 26 0 16 -7 19 -49 19 -52 0 -70 -12 -52 -34 8 -9 8 -22 1 -40 -9 -24 -14 -26 -65 -26 -50 0 -55 2 -61 25 -3 14 -1 32 6 40 18 22 3 35 -41 35 -32 0 -39 -3 -39 -20z m170 -129 c0 -5 -7 -26 -16 -47 l-17 -39 -18 40 c-24 54 -24 55 16 55 19 0 35 -4 35 -9z"/>
 <path d="M5275 1489 c-4 -5 0 -18 9 -28 22 -25 23 -213 1 -231 -27 -22 -16 -30 45 -30 61 0 72 7 45 30 -13 11 -15 34 -13 119 l3 106 39 3 c28 2 47 -3 68 -18 31 -23 48 -19 48 10 0 41 -25 50 -135 50 -63 0 -106 -4 -110 -11z"/>
 <path d="M5535 1491 c-3 -5 2 -16 10 -24 22 -22 22 -219 0 -237 -24 -20 -7 -30 51 -30 41 0 54 4 54 15 0 8 -4 15 -10 15 -14 0 -13 223 1 237 6 6 8 16 5 22 -9 13 -103 15 -111 2z"/>
 <path d="M5684 1489 c-3 -6 -1 -16 5 -22 14 -14 15 -237 1 -237 -5 0 -10 -7 -10 -15 0 -12 17 -15 93 -15 154 1 207 40 207 154 0 47 -4 60 -31 90 -17 20 -47 40 -67 46 -50 13 -189 13 -198 -1z m194 -63 c56 -55 31 -161 -43 -186 -61 -20 -65 -14 -65 103 0 57 3 107 8 111 13 14 76 -3 100 -28z"/>
 <path d="M6005 1489 c-4 -5 0 -18 8 -27 9 -9 29 -55 46 -102 45 -122 71 -165 101 -165 29 0 50 37 101 178 17 48 36 87 40 87 5 0 9 9 9 20 0 18 -7 20 -55 20 -48 0 -55 -2 -55 -20 0 -11 4 -20 9 -20 6 0 6 -12 -1 -30 -10 -30 -12 -31 -66 -28 -51 3 -56 5 -63 31 -4 15 -3 27 2 27 5 0 9 9 9 20 0 17 -7 20 -39 20 -22 0 -43 -5 -46 -11z m174 -136 c0 -5 -9 -26 -18 -48 l-18 -40 -17 39 c-22 53 -21 56 19 56 19 0 35 -3 34 -7z"/>
 <path d="M6330 1486 c0 -8 5 -18 10 -21 6 -4 10 -55 10 -121 0 -69 -4 -114 -10 -114 -5 0 -10 -7 -10 -15 0 -12 17 -15 93 -15 159 1 213 43 205 162 -8 103 -62 138 -215 138 -66 0 -83 -3 -83 -14z m197 -61 c53 -60 32 -157 -39 -184 -63 -23 -68 -15 -68 102 0 57 3 107 8 111 14 15 77 -3 99 -29z"/>
 <path d="M538 1435 c-4 -4 -3 -16 3 -27 24 -45 -26 -50 -112 -12 -32 15 -65 24 -74 20 -14 -5 -75 -122 -75 -143 0 -5 28 -18 63 -31 34 -13 78 -29 97 -37 34 -13 35 -13 38 11 8 62 88 67 216 13 80 -34 106 -37 106 -11 0 11 9 27 20 37 25 23 87 16 173 -21 80 -34 130 -42 121 -21 -3 9 4 25 16 37 19 19 29 21 73 16 28 -4 82 -20 120 -37 81 -34 107 -37 107 -11 0 11 9 27 20 37 19 17 26 18 81 6 33 -6 67 -15 76 -18 21 -8 12 19 -35 117 -36 74 -61 95 -85 71 -7 -7 -6 -15 2 -25 7 -8 10 -20 6 -26 -11 -18 -58 -10 -130 21 -42 18 -95 33 -133 36 l-64 6 4 -34 c3 -30 0 -34 -24 -37 -15 -2 -60 11 -100 29 -111 49 -228 52 -188 4 6 -8 9 -19 5 -25 -11 -18 -58 -10 -130 21 -68 30 -182 49 -197 34z"/>
 <path d="M514 1236 c-15 -12 -16 -16 -5 -29 7 -9 10 -21 6 -27 -11 -18 -54 -11 -123 19 -106 47 -120 48 -129 14 -4 -15 -8 -89 -8 -163 1 -121 4 -143 29 -215 71 -205 224 -361 428 -437 107 -40 273 -50 391 -24 252 56 453 252 518 504 19 76 25 257 10 311 -7 26 -44 43 -116 54 -53 8 -75 -4 -57 -34 12 -18 12 -23 0 -31 -18 -12 -58 -3 -136 31 -87 38 -163 49 -181 27 -11 -13 -11 -19 0 -32 10 -13 10 -17 -2 -25 -18 -12 -56 -3 -144 31 -122 48 -197 48 -167 -1 12 -18 12 -23 0 -30 -22 -14 -50 -10 -113 17 -107 46 -175 59 -201 40z"/>
 <path d="M1840 1135 c0 -24 -2 -25 -75 -25 -68 0 -75 -2 -75 -20 0 -18 7 -20 76 -20 67 0 76 -2 81 -20 3 -12 14 -20 25 -20 14 0 18 5 14 16 -3 9 -6 38 -6 65 0 42 -3 49 -20 49 -15 0 -20 -7 -20 -25z"/>
 <path d="M20 1098 c0 -36 4 -48 15 -48 9 0 18 12 21 29 7 33 34 33 34 0 0 -12 7 -19 20 -19 13 0 20 7 20 20 0 13 7 20 20 20 16 0 20 -7 20 -30 0 -23 4 -30 20 -30 17 0 20 7 20 45 0 28 -5 47 -12 50 -7 2 -50 5 -95 7 l-83 3 0 -47z"/>
 <path d="M3900 1115 c0 -8 5 -15 10 -15 6 0 10 -33 10 -79 0 -44 -4 -83 -10 -86 -23 -14 -7 -25 35 -25 42 0 58 11 35 25 -5 3 -10 42 -10 86 0 46 4 79 10 79 6 0 10 7 10 15 0 11 -12 15 -45 15 -33 0 -45 -4 -45 -15z"/>
 <path d="M4010 1115 c0 -8 5 -15 10 -15 6 0 10 -33 10 -79 0 -44 -4 -83 -10 -86 -21 -13 -9 -25 24 -25 29 0 41 7 72 48 21 26 42 52 47 57 6 6 8 -12 5 -47 -5 -57 -4 -58 21 -58 l26 0 -3 97 c-2 54 -5 104 -7 111 -10 28 -37 8 -87 -64 l-53 -76 -3 58 c-2 35 1 60 7 62 6 2 11 10 11 18 0 9 -11 14 -35 14 -24 0 -35 -5 -35 -15z"/>
 <path d="M4262 1114 c-24 -17 -30 -54 -9 -54 8 0 22 9 32 20 26 28 79 24 83 -6 3 -18 -6 -24 -55 -40 -55 -18 -58 -21 -61 -55 -4 -42 19 -67 69 -75 50 -8 89 10 89 41 0 30 -13 32 -40 5 -24 -24 -43 -25 -60 -5 -17 21 -5 34 46 46 53 14 78 44 68 83 -3 15 -16 33 -27 41 -28 20 -107 19 -135 -1z"/>
 <path d="M4490 1115 c0 -8 5 -15 10 -15 6 0 10 -34 10 -81 0 -87 1 -86 -52 -64 -15 6 -18 2 -18 -19 l0 -27 98 3 c92 3 97 4 100 26 3 23 -21 32 -33 12 -3 -5 -15 -10 -26 -10 -17 0 -19 7 -19 80 0 47 4 80 10 80 6 0 10 7 10 15 0 11 -12 15 -45 15 -33 0 -45 -4 -45 -15z"/>
 <path d="M4650 1115 c0 -8 5 -15 10 -15 6 0 10 -33 10 -79 0 -44 -4 -83 -10 -86 -23 -14 -7 -25 35 -25 42 0 58 11 35 25 -5 3 -10 42 -10 86 0 46 4 79 10 79 6 0 10 7 10 15 0 11 -12 15 -45 15 -33 0 -45 -4 -45 -15z"/>
 <path d="M4818 1035 c4 -81 2 -95 -11 -95 -9 0 -19 5 -22 10 -12 20 -36 11 -33 -12 3 -22 8 -23 101 -26 l97 -3 0 26 c0 25 -23 35 -35 15 -3 -5 -13 -10 -21 -10 -11 0 -14 17 -14 79 0 44 5 83 10 86 19 12 -1 25 -39 25 l-37 0 4 -95z"/>
 <path d="M4999 1111 c-22 -17 -24 -27 -24 -110 l0 -91 37 0 c36 0 49 12 28 25 -14 9 -13 138 2 153 15 15 61 15 76 0 15 -15 16 -144 2 -153 -21 -13 -9 -25 26 -25 29 0 35 3 30 16 -3 9 -6 47 -6 85 0 61 -3 73 -25 94 -31 32 -110 35 -146 6z"/>
 <path d="M5250 1115 c0 -8 5 -15 10 -15 6 0 10 -33 10 -80 0 -44 -4 -80 -10 -80 -5 0 -21 5 -35 12 -30 14 -36 9 -28 -20 5 -21 11 -22 98 -22 86 0 94 2 100 21 9 27 -1 36 -25 21 -43 -27 -50 -17 -50 68 0 47 4 80 10 80 6 0 10 7 10 15 0 11 -12 15 -45 15 -33 0 -45 -4 -45 -15z"/>
 <path d="M5449 1102 c-64 -57 -43 -166 36 -192 98 -32 181 47 154 146 -14 48 -52 74 -110 74 -39 0 -55 -5 -80 -28z m115 -17 c37 -37 24 -132 -19 -149 -37 -14 -75 29 -75 86 0 65 55 101 94 63z"/>
 <path d="M5775 1121 c-3 -5 -1 -12 5 -16 13 -8 13 -162 0 -170 -27 -16 -3 -25 70 -25 67 0 83 3 100 20 42 42 7 102 -68 115 -32 5 -42 11 -42 25 0 10 5 22 10 25 6 3 10 13 10 21 0 16 -75 21 -85 5z m124 -126 c8 -8 10 -21 6 -34 -5 -17 -13 -21 -33 -19 -23 3 -27 8 -30 41 -3 36 -2 38 20 32 13 -4 29 -13 37 -20z"/>
 <path d="M5960 1117 c0 -7 4 -17 9 -22 5 -6 14 -28 21 -50 25 -78 62 -145 80 -145 17 0 70 102 86 164 3 15 10 29 15 32 5 3 9 12 9 20 0 10 -12 14 -41 14 -37 0 -41 -2 -36 -21 9 -36 -2 -49 -43 -49 -41 0 -52 13 -43 49 5 18 1 21 -26 21 -19 0 -31 -5 -31 -13z m120 -100 c0 -7 -6 -21 -13 -32 -13 -17 -15 -16 -25 13 -10 30 -10 32 14 32 13 0 24 -6 24 -13z"/>
 <path d="M6190 1115 c0 -8 5 -15 10 -15 6 0 10 -33 10 -79 0 -44 -4 -83 -10 -86 -27 -17 -2 -25 74 -25 76 0 86 2 100 22 21 30 20 44 -4 68 l-20 20 20 39 c11 22 24 42 29 45 11 7 26 -12 36 -44 19 -66 69 -160 85 -160 18 0 55 67 80 145 7 22 16 44 21 50 21 22 8 35 -32 35 -37 0 -41 -2 -36 -21 9 -36 -2 -49 -43 -49 -40 0 -52 13 -43 48 5 19 0 21 -68 21 -79 0 -95 -4 -80 -23 14 -16 -25 -77 -45 -69 -16 6 -20 63 -4 63 6 0 10 7 10 15 0 11 -12 15 -45 15 -33 0 -45 -4 -45 -15z m340 -98 c0 -7 -6 -21 -13 -30 -11 -16 -13 -15 -24 13 -11 28 -10 30 13 30 13 0 24 -6 24 -13z m-205 -53 c0 -14 -8 -20 -32 -22 -32 -3 -33 -2 -33 32 l0 36 33 -13 c20 -9 32 -20 32 -33z"/>
 <path d="M33 1023 c-14 -5 -17 -62 -7 -100 4 -14 14 -23 26 -23 16 0 19 5 14 24 -6 23 -4 24 75 30 66 6 80 10 75 23 -3 8 -6 16 -6 19 0 2 -34 1 -75 -3 -72 -6 -75 -5 -75 16 0 21 -5 24 -27 14z"/>
 <path d="M1686 1008 c-18 -69 -13 -73 110 -82 80 -7 84 -4 84 60 0 27 -4 34 -20 34 -16 0 -20 -7 -20 -30 0 -23 -4 -30 -20 -30 -15 0 -20 7 -20 25 0 18 -5 25 -20 25 -13 0 -20 -7 -20 -20 0 -14 -7 -20 -21 -20 -18 0 -20 4 -14 30 6 25 4 30 -13 30 -12 0 -22 -9 -26 -22z"/>
 <path d="M2751 906 c-44 -28 -81 -54 -81 -57 0 -12 158 -78 234 -98 223 -58 492 -53 723 14 29 9 53 21 53 28 0 7 -12 25 -26 40 l-24 29 -63 -17 c-37 -10 -117 -19 -202 -22 -187 -7 -299 15 -437 85 l-96 48 -81 -50z"/>
 <path d="M1670 901 c-16 -32 -12 -68 13 -97 18 -20 35 -28 74 -31 46 -5 54 -2 78 21 34 34 33 89 -3 94 -20 3 -22 0 -16 -22 8 -33 -10 -56 -45 -56 -53 0 -89 48 -60 77 6 6 8 16 5 22 -11 17 -34 13 -46 -8z"/>
 <path d="M140 827 c-68 -25 -85 -36 -82 -49 4 -22 1 -23 84 7 l69 25 9 -25 c6 -15 17 -25 30 -25 11 0 20 1 20 3 0 14 -33 97 -38 96 -4 0 -45 -14 -92 -32z"/>
 <path d="M1622 767 c-19 -22 -25 -66 -11 -83 19 -23 129 -76 145 -70 26 10 14 26 -38 52 -68 34 -78 42 -71 60 7 20 27 18 83 -11 58 -29 80 -32 80 -7 0 11 -21 26 -63 45 -67 29 -108 34 -125 14z"/>
 <path d="M168 709 c-41 -21 -58 -35 -58 -49 0 -26 -1 -26 71 11 57 28 89 32 89 10 0 -5 -29 -26 -65 -46 -36 -20 -65 -40 -65 -46 0 -24 35 -18 95 17 73 43 87 69 61 109 -22 33 -56 32 -128 -6z"/>
 <path d="M1553 645 c-13 -19 -23 -38 -23 -43 0 -13 151 -113 161 -106 21 13 5 36 -52 75 -56 38 -59 42 -45 58 20 22 20 37 0 45 -9 3 -16 6 -17 6 -1 0 -12 -16 -24 -35z"/>
 <path d="M299 608 c-14 -45 -20 -50 -69 -58 -26 -4 -36 -11 -38 -27 -3 -20 0 -21 34 -16 34 6 37 4 30 -13 -14 -32 -12 -48 5 -52 11 -2 22 10 33 37 15 39 23 45 81 53 12 2 21 12 23 25 3 20 0 21 -34 16 -34 -6 -37 -4 -30 13 18 42 17 51 -2 56 -16 4 -22 -2 -33 -34z"/>
 <path d="M1432 518 c-15 -15 -16 -45 -1 -54 7 -4 16 1 21 10 5 9 16 16 25 16 12 0 14 -8 9 -44 -6 -37 -4 -48 13 -65 12 -12 32 -21 44 -21 42 0 77 60 43 73 -8 3 -21 -4 -30 -16 -12 -18 -17 -20 -25 -8 -5 9 -6 24 0 38 10 28 -3 68 -26 77 -26 10 -60 7 -73 -6z"/>
 <path d="M401 444 c-29 -36 -54 -73 -55 -82 -3 -37 32 -17 87 50 45 56 55 73 46 84 -6 8 -14 14 -18 13 -3 0 -30 -30 -60 -65z"/>
 <path d="M1383 473 c-7 -2 -13 -11 -13 -19 0 -8 -6 -14 -14 -14 -17 0 -26 -21 -27 -63 l0 -32 -16 33 c-17 33 -40 42 -49 19 -6 -16 77 -166 91 -167 26 0 75 41 75 63 0 28 -26 67 -46 67 -15 0 -17 23 -6 52 6 14 17 5 55 -48 43 -60 50 -65 64 -52 13 14 9 24 -41 92 -31 42 -58 76 -59 75 -1 0 -8 -3 -14 -6z m3 -164 c3 -6 1 -16 -5 -22 -9 -9 -14 -8 -21 3 -5 8 -10 18 -10 23 0 11 28 8 36 -4z"/>
 <path d="M448 392 c-39 -64 -44 -79 -33 -91 11 -11 22 -8 71 19 l57 33 -33 -47 c-26 -39 -30 -50 -19 -57 23 -14 26 -12 74 67 64 106 51 131 -39 73 l-49 -30 27 46 c26 44 27 65 3 65 -7 -1 -33 -35 -59 -78z"/>
 <path d="M1183 368 c-18 -6 -33 -17 -33 -24 0 -16 50 -156 60 -167 4 -5 25 0 46 10 45 21 55 50 30 88 -9 13 -16 35 -16 49 0 21 -33 58 -50 55 -3 -1 -20 -6 -37 -11z m46 -65 c-15 -18 -34 -1 -25 22 5 14 9 15 21 5 12 -10 13 -16 4 -27z m26 -62 c0 -23 -22 -24 -28 -1 -4 16 -1 20 11 18 9 -2 17 -10 17 -17z"/>
 <path d="M700 334 c-6 -14 -15 -45 -21 -70 -10 -39 -14 -43 -35 -38 -19 5 -24 2 -24 -14 0 -15 12 -24 47 -36 61 -21 73 -20 73 4 0 11 -7 20 -15 20 -20 0 -19 16 5 92 11 34 20 64 20 66 0 1 -9 2 -20 2 -13 0 -24 -10 -30 -26z"/>
 <path d="M1082 340 c-18 -4 -35 -9 -37 -11 -2 -3 3 -36 11 -74 24 -117 23 -117 42 -111 9 2 29 7 45 10 18 4 27 13 27 26 0 16 -5 19 -29 14 -35 -7 -55 24 -21 33 12 3 20 14 20 25 0 16 -5 19 -25 16 -19 -4 -25 -1 -25 12 0 11 10 20 25 24 16 4 25 13 25 26 0 21 -6 22 -58 10z"/>
 <path d="M781 274 c-6 -38 -14 -81 -17 -95 -5 -29 12 -39 69 -39 38 0 34 34 -5 38 -20 2 -25 7 -21 23 4 14 12 19 24 16 10 -3 20 2 23 10 8 19 -1 33 -20 33 -8 0 -14 8 -14 18 0 15 6 18 30 14 20 -3 30 0 31 9 1 8 7 -26 13 -76 14 -114 31 -123 69 -38 l26 58 0 -52 c1 -46 4 -53 21 -53 20 0 21 5 18 92 -3 78 -6 93 -20 96 -12 2 -26 -14 -47 -55 l-30 -58 -1 58 0 57 -39 0 c-21 0 -52 3 -69 6 l-30 6 -11 -68z"/>
 </g>
<g id="layer102" fill="#7b1b06" stroke="none">
 <path d="M820 1978 c-98 -12 -249 -64 -346 -119 -90 -51 -226 -176 -289 -263 -75 -106 -130 -235 -159 -368 l-6 -28 109 0 109 0 7 38 c25 136 146 312 281 408 131 94 267 137 429 136 313 -1 583 -197 686 -496 l28 -81 106 -3 c58 -1 105 1 105 6 0 4 -9 42 -20 84 -96 368 -411 640 -795 687 -102 12 -139 12 -245 -1z"/>
 <path d="M810 1743 c-75 -12 -210 -70 -260 -111 l-25 -21 37 -15 c47 -20 72 -21 65 -2 -3 7 1 23 9 35 23 33 92 28 194 -14 47 -19 90 -35 97 -35 6 0 13 12 15 27 7 59 89 59 220 2 74 -32 103 -37 95 -15 -3 8 3 26 13 39 23 29 20 33 -58 66 -100 42 -291 63 -402 44z"/>
 <path d="M656 1622 c-4 -6 -4 -23 0 -37 6 -24 4 -25 -32 -25 -22 0 -58 9 -81 19 l-42 20 -65 -70 c-37 -38 -66 -73 -66 -77 0 -9 122 -62 141 -62 6 0 8 9 4 19 -7 23 26 61 53 61 35 -1 109 -21 179 -50 39 -17 74 -30 77 -30 3 0 6 11 6 25 0 15 10 31 25 41 22 14 34 15 80 6 31 -6 86 -25 124 -42 38 -16 74 -30 79 -30 5 0 10 12 10 27 0 29 25 53 56 53 31 0 112 -24 183 -54 35 -14 65 -26 68 -26 3 0 5 11 5 25 0 14 9 30 20 37 11 7 20 18 20 24 0 6 -34 44 -76 83 -65 63 -80 72 -107 69 -29 -3 -32 -6 -29 -35 2 -32 1 -33 -34 -33 -20 0 -67 14 -106 31 -86 38 -174 50 -184 25 -3 -9 -1 -22 5 -30 31 -37 -47 -35 -139 5 -78 33 -163 48 -174 31z"/>
 <path d="M538 1435 c-4 -4 -3 -16 3 -27 24 -45 -26 -50 -112 -12 -32 15 -65 24 -74 20 -14 -5 -75 -122 -75 -143 0 -5 28 -18 63 -31 34 -13 78 -29 97 -37 34 -13 35 -13 38 11 8 62 88 67 216 13 80 -34 106 -37 106 -11 0 11 9 27 20 37 25 23 87 16 173 -21 80 -34 130 -42 121 -21 -3 9 4 25 16 37 19 19 29 21 73 16 28 -4 82 -20 120 -37 81 -34 107 -37 107 -11 0 11 9 27 20 37 19 17 26 18 81 6 33 -6 67 -15 76 -18 21 -8 12 19 -35 117 -36 74 -61 95 -85 71 -7 -7 -6 -15 2 -25 7 -8 10 -20 6 -26 -11 -18 -58 -10 -130 21 -42 18 -95 33 -133 36 l-64 6 4 -34 c3 -30 0 -34 -24 -37 -15 -2 -60 11 -100 29 -111 49 -228 52 -188 4 6 -8 9 -19 5 -25 -11 -18 -58 -10 -130 21 -68 30 -182 49 -197 34z"/>
 <path d="M1156 1232 c-3 -5 -2 -21 2 -37 l8 -28 17 26 c9 15 17 31 17 37 0 12 -37 14 -44 2z"/>
 <path d="M1189 1185 c-33 -46 -42 -55 -34 -32 4 8 -10 13 -47 15 -84 4 -96 7 -91 15 2 4 -1 7 -7 7 -7 0 -10 -12 -6 -32 4 -28 3 -27 -8 7 l-13 40 -34 -55 c-52 -82 -62 -109 -48 -127 10 -11 9 -25 -6 -66 -25 -69 -24 -161 1 -212 18 -38 21 -40 76 -45 46 -4 60 -10 78 -32 l21 -28 140 0 139 0 -29 40 c-59 81 -66 197 -19 288 l26 49 -33 -10 c-33 -10 -105 -2 -105 11 0 4 5 14 10 22 7 11 5 17 -8 22 -9 4 16 7 56 7 56 1 74 -2 78 -14 4 -8 10 -15 16 -15 5 0 6 5 3 10 -8 13 -1 13 40 -4 43 -18 47 -29 5 -13 -43 16 -46 3 -10 -43 24 -31 39 -40 63 -41 18 -1 44 -3 58 -4 18 -3 38 6 60 24 l33 28 -36 75 c-45 89 -70 117 -93 98 -8 -7 -29 -10 -47 -8 -23 4 -37 0 -45 -11 -10 -14 -11 -12 -6 8 5 21 3 23 -15 19 -12 -4 -20 -2 -17 3 3 4 -11 15 -32 24 -36 15 -38 15 -55 -7 -48 -65 -60 -70 -16 -6 22 32 22 38 4 38 -8 0 -29 -20 -47 -45z m-192 -122 c-3 -10 -5 -2 -5 17 0 19 2 27 5 18 2 -10 2 -26 0 -35z m-25 -107 c7 4 8 2 4 -4 -4 -7 -13 -12 -19 -12 -8 0 -11 16 -7 52 l5 53 3 -48 c2 -31 7 -45 14 -41z"/>
 <path d="M1840 1135 c0 -24 -2 -25 -75 -25 -68 0 -75 -2 -75 -20 0 -18 7 -20 76 -20 67 0 76 -2 81 -20 3 -12 14 -20 25 -20 14 0 18 5 14 16 -3 9 -6 38 -6 65 0 42 -3 49 -20 49 -15 0 -20 -7 -20 -25z"/>
 <path d="M20 1098 c0 -55 24 -68 35 -19 7 33 35 33 35 0 0 -12 7 -19 20 -19 13 0 20 7 20 20 0 13 7 20 20 20 16 0 20 -7 20 -30 0 -23 4 -30 20 -30 17 0 20 7 20 45 0 52 -2 53 -118 57 l-72 3 0 -47z"/>
 <path d="M597 975 c-4 -55 -7 -129 -7 -164 l0 -63 -19 23 c-11 13 -23 21 -27 17 -4 -5 0 -16 10 -27 16 -18 16 -19 -6 -25 -13 -3 -35 -6 -50 -6 -16 0 -28 -4 -28 -10 0 -5 19 -10 43 -10 55 0 63 -8 35 -37 -27 -29 -12 -30 19 -1 l23 21 0 -34 c0 -19 3 -45 7 -57 9 -35 23 -7 23 47 l0 44 23 -21 c31 -29 46 -28 19 1 -28 29 -20 37 35 37 49 0 60 20 11 21 -18 0 -41 4 -51 8 -17 6 -17 8 -3 20 9 7 16 18 16 24 0 6 -11 0 -25 -13 l-25 -23 -1 109 c-1 60 -4 134 -8 164 -6 53 -7 52 -14 -45z"/>
 <path d="M33 1023 c-14 -5 -17 -62 -7 -100 4 -14 14 -23 26 -23 16 0 19 5 14 24 -6 23 -4 24 75 30 66 6 80 10 75 23 -3 8 -6 16 -6 19 0 2 -34 1 -75 -3 -72 -6 -75 -5 -75 16 0 21 -5 24 -27 14z"/>
 <path d="M1686 1008 c-18 -69 -13 -73 110 -82 80 -7 84 -4 84 60 0 27 -4 34 -20 34 -16 0 -20 -7 -20 -30 0 -23 -4 -30 -20 -30 -15 0 -20 7 -20 25 0 18 -5 25 -20 25 -13 0 -20 -7 -20 -20 0 -14 -7 -20 -21 -20 -18 0 -20 4 -14 30 6 25 4 30 -13 30 -12 0 -22 -9 -26 -22z"/>
 <path d="M1670 901 c-16 -32 -12 -68 13 -97 18 -20 35 -28 74 -31 46 -5 54 -2 78 21 34 34 33 89 -3 94 -20 3 -22 0 -16 -22 8 -33 -10 -56 -45 -56 -53 0 -89 48 -60 77 6 6 8 16 5 22 -11 17 -34 13 -46 -8z"/>
 <path d="M143 829 c-64 -24 -83 -35 -83 -50 0 -24 -1 -24 82 6 l69 25 9 -25 c6 -15 17 -25 30 -25 11 0 20 1 20 3 0 14 -33 97 -38 96 -4 0 -44 -14 -89 -30z"/>
 <path d="M1626 764 c-23 -23 -30 -62 -15 -80 19 -23 129 -76 145 -70 26 10 14 26 -38 52 -68 34 -78 42 -71 60 7 20 27 18 83 -11 57 -29 80 -32 80 -10 0 18 -112 75 -147 75 -12 0 -29 -7 -37 -16z"/>
 <path d="M168 709 c-41 -21 -58 -35 -58 -49 0 -26 -1 -26 71 11 58 29 89 32 89 10 0 -6 -29 -26 -65 -46 -36 -20 -65 -41 -65 -46 0 -24 35 -18 95 17 73 43 87 69 61 109 -22 33 -56 32 -128 -6z"/>
 <path d="M1553 645 c-13 -19 -23 -38 -23 -42 0 -12 152 -113 162 -107 20 13 4 36 -53 75 -56 38 -59 42 -45 58 20 22 20 37 0 45 -9 3 -16 6 -17 6 -1 0 -12 -16 -24 -35z"/>
 <path d="M296 600 c-15 -38 -23 -44 -81 -52 -12 -2 -21 -12 -23 -25 -3 -20 0 -21 34 -16 34 6 37 4 30 -13 -14 -32 -12 -48 5 -52 11 -2 22 10 33 37 15 39 23 45 81 53 12 2 21 12 23 25 3 20 0 21 -34 16 -34 -6 -37 -4 -30 13 19 45 19 54 -2 54 -14 0 -25 -12 -36 -40z"/>
 <path d="M1170 600 c0 -16 2 -30 4 -30 2 0 6 14 8 30 3 17 1 30 -4 30 -4 0 -8 -13 -8 -30z"/>
 <path d="M1121 600 l-35 -18 33 -7 c38 -8 44 -4 39 23 -3 20 -4 20 -37 2z"/>
 <path d="M1432 518 c-15 -15 -16 -45 -1 -54 7 -4 16 1 21 10 5 9 16 16 25 16 12 0 14 -8 9 -44 -6 -37 -4 -48 13 -65 12 -12 32 -21 44 -21 27 0 57 28 57 52 0 25 -23 27 -42 4 -15 -17 -19 -19 -27 -7 -5 9 -6 24 0 38 10 28 -3 68 -26 77 -26 10 -60 7 -73 -6z"/>
 <path d="M400 440 c-30 -38 -55 -75 -55 -82 0 -33 35 -11 87 54 44 55 55 75 46 85 -6 7 -13 13 -17 13 -3 -1 -31 -32 -61 -70z"/>
 <path d="M1383 473 c-7 -2 -13 -11 -13 -19 0 -8 -6 -14 -14 -14 -17 0 -26 -21 -27 -63 l0 -32 -16 33 c-18 35 -21 36 -42 23 -11 -7 -5 -25 30 -90 24 -44 49 -81 54 -81 6 0 25 9 43 20 22 14 32 27 32 45 0 25 -25 58 -51 67 -10 3 -11 12 -3 37 l9 33 48 -67 c44 -60 50 -66 64 -52 14 13 9 23 -42 91 -32 42 -58 76 -59 75 0 0 -7 -3 -13 -6z m3 -164 c3 -6 1 -16 -5 -22 -9 -9 -14 -8 -21 3 -5 8 -10 18 -10 23 0 11 28 8 36 -4z"/>
 <path d="M453 396 c-24 -40 -43 -78 -43 -84 0 -24 23 -22 76 8 l55 32 -31 -48 c-22 -36 -27 -50 -17 -56 6 -4 15 -8 19 -8 8 0 98 147 98 161 0 23 -33 19 -81 -11 l-52 -32 27 46 c26 45 27 66 3 66 -7 0 -31 -33 -54 -74z"/>
 <path d="M1183 368 c-18 -6 -33 -17 -33 -24 0 -16 50 -156 60 -167 4 -5 25 0 46 10 45 21 55 50 30 88 -9 13 -16 35 -16 49 0 21 -33 58 -50 55 -3 -1 -20 -6 -37 -11z m46 -65 c-15 -18 -34 -1 -25 22 5 14 9 15 21 5 12 -10 13 -16 4 -27z m26 -62 c0 -23 -22 -24 -28 -1 -4 16 -1 20 11 18 9 -2 17 -10 17 -17z"/>
 <path d="M700 334 c-6 -14 -15 -45 -21 -70 -10 -39 -14 -43 -35 -38 -19 5 -24 2 -24 -14 0 -15 12 -24 47 -36 61 -21 73 -20 73 4 0 11 -7 20 -15 20 -20 0 -19 16 5 92 11 34 20 64 20 66 0 1 -9 2 -20 2 -13 0 -24 -10 -30 -26z"/>
 <path d="M1082 340 c-18 -4 -35 -9 -37 -11 -2 -3 3 -36 11 -74 24 -117 23 -117 42 -111 9 2 29 7 45 10 18 4 27 13 27 26 0 16 -5 19 -29 14 -35 -7 -55 24 -21 33 12 3 20 14 20 25 0 16 -5 19 -25 16 -19 -4 -25 -1 -25 12 0 11 10 20 25 24 16 4 25 13 25 26 0 21 -6 22 -58 10z"/>
 <path d="M781 274 c-6 -38 -14 -81 -17 -95 -5 -29 12 -39 69 -39 38 0 34 34 -5 38 -20 2 -25 7 -21 23 4 14 12 19 24 16 21 -6 35 23 17 35 -7 4 -16 8 -20 8 -5 0 -8 8 -8 18 0 15 6 18 30 14 20 -3 30 0 31 9 1 8 7 -26 13 -76 14 -112 30 -121 68 -38 l26 58 1 -52 c1 -46 4 -53 21 -53 20 0 21 5 18 92 -3 78 -6 93 -20 96 -12 2 -26 -14 -47 -55 l-30 -58 -1 58 0 57 -39 0 c-21 0 -52 3 -69 6 l-30 6 -11 -68z"/>
 </g>
<g id="layer103" fill="#005fad" stroke="none">
 <path d="M935 1924 c-6 -45 -7 -46 -27 -27 -19 17 -20 17 -38 -5 l-19 -23 -12 42 c-12 38 -32 59 -45 46 -3 -3 7 -40 22 -82 29 -82 31 -83 64 -25 7 12 14 10 39 -14 17 -17 31 -26 31 -20 0 5 6 42 14 82 13 67 13 72 -4 72 -13 0 -19 -11 -25 -46z"/>
 <path d="M1000 1965 c0 -3 9 -23 20 -45 l20 -39 -26 -30 c-34 -40 -21 -62 16 -26 l27 26 13 -30 c7 -17 19 -31 27 -31 11 0 13 5 8 18 -30 71 -30 69 -2 105 21 28 24 36 12 41 -8 3 -23 -6 -34 -20 l-20 -25 -12 23 c-15 29 -49 52 -49 33z"/>
 <path d="M706 1924 c-37 -36 -4 -144 44 -144 22 0 56 43 39 49 -6 2 -16 -2 -22 -8 -16 -16 -47 16 -47 51 0 23 4 28 25 28 27 0 32 9 13 28 -16 16 -33 15 -52 -4z"/>
 <path d="M633 1912 c-8 -5 -9 -21 -3 -50 7 -38 5 -42 -9 -37 -30 12 -36 10 -39 -12 -5 -31 -12 -29 -43 9 -18 22 -31 29 -44 25 -14 -6 -9 -16 35 -67 53 -61 70 -67 70 -26 0 33 9 37 42 20 17 -9 32 -13 34 -11 6 6 -17 139 -25 149 -3 4 -11 4 -18 0z"/>
 <path d="M1181 1860 c-28 -34 -51 -66 -51 -71 0 -20 30 -7 51 23 l23 31 10 -43 c6 -24 17 -45 24 -48 11 -3 12 12 6 79 -3 46 -8 85 -9 87 -1 2 -26 -25 -54 -58z"/>
 <path d="M1301 1810 c-36 -81 -36 -80 -16 -80 15 0 75 107 75 135 0 37 -30 9 -59 -55z"/>
 <path d="M1355 1785 c-32 -59 -38 -85 -17 -85 13 0 83 130 77 140 -12 20 -24 9 -60 -55z"/>
 <path d="M810 1743 c-75 -12 -210 -70 -260 -111 l-25 -21 37 -15 c47 -20 72 -21 65 -2 -3 7 1 23 9 35 23 33 92 28 194 -14 47 -19 90 -35 97 -35 6 0 13 12 15 27 7 59 89 59 220 2 74 -32 103 -37 95 -15 -3 8 3 26 13 39 23 29 20 33 -58 66 -100 42 -291 63 -402 44z"/>
 <path d="M656 1622 c-4 -6 -4 -23 0 -37 6 -24 4 -25 -32 -25 -22 0 -58 9 -81 19 l-42 20 -65 -70 c-37 -38 -66 -73 -66 -77 0 -9 122 -62 141 -62 6 0 8 9 4 19 -7 23 26 61 53 61 35 -1 109 -21 179 -50 39 -17 74 -30 77 -30 3 0 6 11 6 25 0 15 10 31 25 41 22 14 34 15 80 6 31 -6 86 -25 124 -42 38 -16 74 -30 79 -30 5 0 10 12 10 27 0 29 25 53 56 53 31 0 112 -24 183 -54 35 -14 65 -26 68 -26 3 0 5 11 5 25 0 14 9 30 20 37 11 7 20 18 20 24 0 6 -34 44 -76 83 -65 63 -80 72 -107 69 -29 -3 -32 -6 -29 -35 2 -32 1 -33 -34 -33 -20 0 -67 14 -106 31 -86 38 -174 50 -184 25 -3 -9 -1 -22 5 -30 31 -37 -47 -35 -139 5 -78 33 -163 48 -174 31z"/>
 <path d="M538 1435 c-4 -4 -3 -16 3 -27 24 -45 -26 -50 -112 -12 -32 15 -65 24 -74 20 -14 -5 -75 -122 -75 -143 0 -5 28 -18 63 -31 34 -13 78 -29 97 -37 34 -13 35 -13 38 11 8 62 88 67 216 13 80 -34 106 -37 106 -11 0 11 9 27 20 37 25 23 87 16 173 -21 80 -34 130 -42 121 -21 -3 9 4 25 16 37 19 19 29 21 73 16 28 -4 82 -20 120 -37 81 -34 107 -37 107 -11 0 11 9 27 20 37 19 17 26 18 81 6 33 -6 67 -15 76 -18 21 -8 12 19 -35 117 -36 74 -61 95 -85 71 -7 -7 -6 -15 2 -25 7 -8 10 -20 6 -26 -11 -18 -58 -10 -130 21 -42 18 -95 33 -133 36 l-64 6 4 -34 c3 -30 0 -34 -24 -37 -15 -2 -60 11 -100 29 -111 49 -228 52 -188 4 6 -8 9 -19 5 -25 -11 -18 -58 -10 -130 21 -68 30 -182 49 -197 34z"/>
 <path d="M1156 1232 c-3 -5 -2 -21 2 -37 l8 -28 17 26 c9 15 17 31 17 37 0 12 -37 14 -44 2z"/>
 <path d="M1189 1185 c-33 -46 -42 -55 -34 -32 4 8 -10 13 -47 15 -84 4 -96 7 -91 15 2 4 -1 7 -7 7 -7 0 -10 -12 -6 -32 4 -28 3 -27 -8 7 l-13 40 -34 -55 c-52 -82 -62 -109 -48 -127 10 -11 9 -25 -6 -66 -25 -69 -24 -161 1 -212 18 -38 21 -40 76 -45 46 -4 60 -10 78 -32 l21 -28 140 0 139 0 -29 40 c-59 81 -66 197 -19 288 l26 49 -33 -10 c-33 -10 -105 -2 -105 11 0 4 5 14 10 22 7 11 5 17 -8 22 -9 4 16 7 56 7 56 1 74 -2 78 -14 4 -8 10 -15 16 -15 5 0 6 5 3 10 -8 13 -1 13 40 -4 43 -18 47 -29 5 -13 -43 16 -46 3 -10 -43 24 -31 39 -40 63 -41 18 -1 44 -3 58 -4 18 -3 38 6 60 24 l33 28 -36 75 c-45 89 -70 117 -93 98 -8 -7 -29 -10 -47 -8 -23 4 -37 0 -45 -11 -10 -14 -11 -12 -6 8 5 21 3 23 -15 19 -12 -4 -20 -2 -17 3 3 4 -11 15 -32 24 -36 15 -38 15 -55 -7 -48 -65 -60 -70 -16 -6 22 32 22 38 4 38 -8 0 -29 -20 -47 -45z m-192 -122 c-3 -10 -5 -2 -5 17 0 19 2 27 5 18 2 -10 2 -26 0 -35z m-25 -107 c7 4 8 2 4 -4 -4 -7 -13 -12 -19 -12 -8 0 -11 16 -7 52 l5 53 3 -48 c2 -31 7 -45 14 -41z"/>
 <path d="M597 975 c-4 -55 -7 -129 -7 -164 l0 -63 -19 23 c-11 13 -23 21 -27 17 -4 -5 0 -16 10 -27 16 -18 16 -19 -6 -25 -13 -3 -35 -6 -50 -6 -16 0 -28 -4 -28 -10 0 -5 19 -10 43 -10 55 0 63 -8 35 -37 -27 -29 -12 -30 19 -1 l23 21 0 -34 c0 -19 3 -45 7 -57 9 -35 23 -7 23 47 l0 44 23 -21 c31 -29 46 -28 19 1 -28 29 -20 37 35 37 49 0 60 20 11 21 -18 0 -41 4 -51 8 -17 6 -17 8 -3 20 9 7 16 18 16 24 0 6 -11 0 -25 -13 l-25 -23 -1 109 c-1 60 -4 134 -8 164 -6 53 -7 52 -14 -45z"/>
 <path d="M1170 600 c0 -16 2 -30 4 -30 2 0 6 14 8 30 3 17 1 30 -4 30 -4 0 -8 -13 -8 -30z"/>
 <path d="M1121 600 l-35 -18 33 -7 c38 -8 44 -4 39 23 -3 20 -4 20 -37 2z"/>
 </g>
<g id="layer104" fill="#bd763a" stroke="none">
 <path d="M935 1924 c-6 -45 -7 -46 -27 -27 -19 17 -20 17 -38 -5 l-19 -23 -12 42 c-12 38 -32 59 -45 46 -3 -3 7 -40 22 -82 29 -82 31 -83 64 -25 7 12 14 10 39 -14 17 -17 31 -26 31 -20 0 5 6 42 14 82 13 67 13 72 -4 72 -13 0 -19 -11 -25 -46z"/>
 <path d="M1000 1965 c0 -3 9 -23 20 -45 l20 -39 -26 -30 c-34 -40 -21 -62 16 -26 l27 26 13 -30 c7 -17 19 -31 27 -31 11 0 13 5 8 18 -30 71 -30 69 -2 105 21 28 24 36 12 41 -8 3 -23 -6 -34 -20 l-20 -25 -12 23 c-15 29 -49 52 -49 33z"/>
 <path d="M706 1924 c-37 -36 -4 -144 44 -144 22 0 56 43 39 49 -6 2 -16 -2 -22 -8 -16 -16 -47 16 -47 51 0 23 4 28 25 28 27 0 32 9 13 28 -16 16 -33 15 -52 -4z"/>
 <path d="M633 1912 c-8 -5 -9 -21 -3 -50 7 -38 5 -42 -9 -37 -30 12 -36 10 -39 -12 -5 -31 -12 -29 -43 9 -18 22 -31 29 -44 25 -14 -6 -9 -16 35 -67 53 -61 70 -67 70 -26 0 33 9 37 42 20 17 -9 32 -13 34 -11 6 6 -17 139 -25 149 -3 4 -11 4 -18 0z"/>
 <path d="M1181 1860 c-28 -34 -51 -66 -51 -71 0 -20 30 -7 51 23 l23 31 10 -43 c6 -24 17 -45 24 -48 11 -3 12 12 6 79 -3 46 -8 85 -9 87 -1 2 -26 -25 -54 -58z"/>
 <path d="M1301 1810 c-36 -81 -36 -80 -16 -80 15 0 75 107 75 135 0 37 -30 9 -59 -55z"/>
 <path d="M1355 1785 c-32 -59 -38 -85 -17 -85 13 0 83 130 77 140 -12 20 -24 9 -60 -55z"/>
 <path d="M1156 1232 c-3 -5 -2 -21 2 -37 l8 -28 17 26 c9 15 17 31 17 37 0 12 -37 14 -44 2z"/>
 <path d="M1189 1185 c-33 -46 -42 -55 -34 -32 4 8 -10 13 -47 15 -84 4 -96 7 -91 15 2 4 -1 7 -7 7 -7 0 -10 -12 -6 -32 4 -28 3 -27 -8 7 l-13 40 -34 -55 c-54 -86 -62 -108 -45 -131 12 -18 12 -25 -2 -52 -26 -52 -28 -165 -4 -221 l21 -46 120 0 c110 0 120 1 115 18 -5 14 -4 14 4 2 17 -23 4 -30 -59 -30 -62 0 -70 -7 -41 -33 15 -14 42 -17 150 -17 l131 0 -36 68 c-33 63 -35 71 -31 142 3 50 12 89 26 117 l22 42 -35 -6 c-18 -3 -50 -2 -70 1 -32 6 -34 9 -24 28 9 16 8 23 -2 29 -9 5 14 9 59 9 55 0 74 -4 78 -15 4 -8 10 -15 16 -15 5 0 6 5 3 10 -8 13 -1 13 40 -4 43 -18 47 -29 5 -13 -43 16 -46 3 -10 -43 24 -31 39 -40 63 -41 18 -1 44 -3 58 -4 18 -3 38 6 60 24 l33 28 -36 75 c-45 89 -70 117 -93 98 -8 -7 -29 -10 -47 -8 -23 4 -37 0 -45 -11 -10 -14 -11 -12 -6 8 5 21 3 23 -15 19 -12 -4 -20 -2 -17 3 3 4 -11 15 -32 24 -36 15 -38 15 -55 -7 -48 -65 -60 -70 -16 -6 22 32 22 38 4 38 -8 0 -29 -20 -47 -45z m-192 -122 c-3 -10 -5 -2 -5 17 0 19 2 27 5 18 2 -10 2 -26 0 -35z m-17 -97 c8 11 22 24 30 29 8 4 2 -6 -14 -23 -42 -45 -52 -41 -46 20 l4 53 6 -50 c5 -47 6 -49 20 -29z m119 70 c-10 -9 -69 -36 -69 -32 0 7 52 35 64 36 5 0 7 -2 5 -4z"/>
 <path d="M602 1004 c-1 -39 -5 -112 -9 -163 l-6 -92 -25 23 -25 23 16 -25 c25 -36 22 -40 -34 -40 -31 0 -48 -4 -44 -10 3 -5 26 -10 51 -10 46 0 54 -9 29 -30 -8 -7 -15 -17 -15 -23 0 -6 11 0 24 12 l24 23 8 -59 8 -58 11 59 c10 58 10 58 29 37 11 -12 24 -21 29 -21 6 0 1 10 -11 23 -31 33 -28 37 22 37 25 0 48 5 51 10 4 6 -11 10 -38 10 -54 0 -60 6 -39 39 l16 26 -27 -24 -27 -24 -1 74 c-1 41 -4 115 -8 164 l-8 90 -1 -71z"/>
 <path d="M1170 600 c0 -16 2 -30 4 -30 2 0 6 14 8 30 3 17 1 30 -4 30 -4 0 -8 -13 -8 -30z"/>
 <path d="M1115 595 c-16 -8 -23 -14 -15 -15 8 0 25 -3 37 -6 18 -5 22 -2 20 15 -1 24 -2 24 -42 6z"/>
 </g>
<g id="layer105" fill="#ffc959" stroke="none">
 <path d="M947 1963 c-3 -5 -8 -28 -12 -53 l-7 -44 -20 24 -20 24 -17 -23 -18 -24 -18 47 c-10 26 -23 45 -29 43 -13 -5 -12 -13 16 -91 l22 -59 22 29 23 28 29 -27 29 -28 11 70 c7 38 12 75 12 80 0 13 -17 15 -23 4z"/>
 <path d="M1010 1955 c0 -2 7 -20 17 -39 16 -34 16 -35 -12 -67 -19 -23 -23 -35 -14 -38 7 -2 21 7 32 20 11 13 22 19 24 13 2 -6 10 -20 18 -30 21 -30 30 -7 12 31 -16 33 -16 35 8 64 14 16 25 32 25 35 0 14 -26 4 -38 -14 -16 -26 -26 -25 -40 5 -10 21 -32 35 -32 20z"/>
 <path d="M702 1918 c-28 -28 -2 -120 38 -133 23 -7 50 10 50 31 0 17 -12 18 -29 2 -18 -18 -43 18 -39 57 3 25 7 29 27 27 16 -3 22 1 19 10 -6 17 -50 22 -66 6z"/>
 <path d="M634 1859 c7 -48 6 -50 -14 -39 -25 14 -40 5 -40 -23 0 -19 -4 -17 -39 17 -56 55 -59 28 -4 -38 47 -58 62 -60 63 -8 0 26 17 28 48 6 13 -9 25 -14 27 -13 3 4 -8 78 -20 127 -3 12 -10 22 -16 22 -8 0 -9 -16 -5 -51z"/>
 <path d="M1178 1852 c-51 -63 -54 -91 -4 -43 37 35 46 32 46 -16 0 -24 5 -33 16 -33 11 0 14 5 10 16 -3 9 -6 42 -6 75 0 32 -3 59 -7 59 -5 0 -29 -26 -55 -58z"/>
 <path d="M1306 1812 c-23 -45 -32 -73 -25 -77 13 -9 11 -12 49 64 21 42 28 67 22 73 -7 7 -22 -13 -46 -60z"/>
 <path d="M1356 1780 c-28 -52 -34 -70 -22 -70 16 0 88 119 80 132 -11 17 -21 6 -58 -62z"/>
 <path d="M946 1079 c-18 -60 -21 -115 -6 -124 6 -4 10 12 10 42 0 26 5 65 11 86 16 60 2 56 -15 -4z"/>
 <path d="M602 965 c-1 -60 -5 -134 -9 -163 l-6 -53 -26 23 c-21 19 -23 19 -8 2 29 -35 21 -44 -35 -44 -38 0 -49 -3 -38 -10 8 -5 35 -10 59 -10 41 0 43 -1 29 -17 -28 -33 -31 -48 -6 -25 l26 24 9 -54 9 -53 8 53 8 52 31 -22 32 -21 -29 31 -30 32 45 0 c24 0 51 5 59 10 11 7 0 10 -37 10 -57 0 -65 9 -36 44 13 15 10 14 -10 -3 l-27 -24 -1 54 c-1 30 -5 104 -9 164 l-7 110 -1 -110z"/>
 <path d="M1121 1040 c-60 -22 -94 -41 -133 -77 -31 -30 -60 -27 -69 7 l-6 25 -13 -30 c-7 -16 -15 -62 -17 -101 -4 -57 -1 -80 15 -117 l21 -47 120 0 120 0 -11 31 c-6 16 -8 32 -5 35 5 5 19 -46 18 -63 0 -5 -28 -10 -61 -13 -60 -5 -61 -5 -45 -27 15 -22 23 -23 150 -23 l134 0 -35 66 c-43 84 -47 170 -11 249 l24 50 -66 -1 -66 -2 -23 -43 c-12 -24 -20 -33 -16 -19 4 14 17 43 30 66 13 22 24 44 24 47 0 11 -22 7 -79 -13z m16 -247 c-3 -10 -5 -2 -5 17 0 19 2 27 5 18 2 -10 2 -26 0 -35z"/>
 <path d="M1357 1034 c-3 -4 8 -24 26 -45 27 -33 38 -39 71 -39 l39 0 -24 26 c-13 14 -41 35 -61 45 -42 21 -42 21 -51 13z"/>
 <path d="M1116 596 l-29 -13 31 -5 c26 -4 32 -1 32 14 0 10 -1 18 -2 17 -2 0 -16 -6 -32 -13z"/>
 </g>
<g id="layer106" fill="#ffffff" stroke="none">
 <path d="M941 1933 c-6 -21 -11 -44 -11 -52 0 -10 -7 -8 -24 8 l-24 23 -12 -21 c-14 -27 -26 -20 -35 19 -7 30 -21 47 -32 37 -3 -3 5 -36 17 -73 23 -67 23 -68 41 -46 9 12 20 28 23 35 3 8 12 2 26 -15 12 -16 25 -28 29 -28 7 0 31 109 31 139 0 26 -20 8 -29 -26z"/>
 <path d="M1010 1955 c0 -2 7 -20 16 -39 16 -33 16 -35 -11 -70 -32 -42 -13 -51 20 -10 l21 27 13 -32 c8 -17 17 -31 22 -31 12 0 12 1 -6 44 -15 36 -15 38 10 68 32 37 24 50 -10 18 -27 -25 -27 -25 -44 8 -10 19 -31 31 -31 17z"/>
 <path d="M701 1911 c-18 -34 -12 -69 17 -103 30 -33 57 -34 68 -3 9 23 -3 30 -22 14 -14 -11 -18 -11 -30 6 -8 10 -14 34 -14 52 0 25 4 32 18 30 9 -1 18 3 20 8 1 6 -8 11 -22 13 -17 2 -28 -3 -35 -17z"/>
 <path d="M635 1859 c7 -50 7 -51 -14 -39 -26 14 -41 6 -41 -23 0 -19 -4 -17 -39 17 -56 55 -58 30 -3 -38 l47 -58 9 36 c11 41 15 42 57 20 29 -15 31 -14 26 3 -3 10 -11 44 -17 76 -14 72 -35 77 -25 6z"/>
 <path d="M1178 1852 c-49 -59 -46 -89 3 -34 32 36 39 32 39 -20 0 -21 5 -38 10 -38 6 0 10 32 10 75 0 41 -3 75 -7 74 -5 0 -29 -26 -55 -57z"/>
 <path d="M1306 1812 c-23 -45 -32 -73 -25 -77 13 -9 11 -12 49 64 21 42 28 67 22 73 -7 7 -22 -13 -46 -60z"/>
 <path d="M1357 1780 c-28 -51 -34 -70 -24 -70 9 0 29 25 46 55 36 63 40 76 26 81 -5 2 -27 -28 -48 -66z"/>
 <path d="M602 965 c-1 -60 -5 -134 -9 -163 l-6 -53 -26 23 c-21 19 -23 19 -8 2 29 -35 21 -44 -35 -44 -38 0 -49 -3 -38 -10 8 -5 35 -10 59 -10 41 0 43 -1 29 -17 -28 -33 -31 -48 -6 -25 l26 24 9 -54 9 -53 8 53 8 52 31 -22 32 -21 -29 31 -30 32 45 0 c24 0 51 5 59 10 11 7 0 10 -37 10 -57 0 -65 9 -36 44 13 15 10 14 -10 -3 l-27 -24 -1 54 c-1 30 -5 104 -9 164 l-7 110 -1 -110z"/>
 <path d="M1121 1040 c-60 -22 -94 -41 -133 -77 -31 -30 -60 -27 -69 7 l-6 25 -13 -30 c-7 -16 -15 -62 -17 -101 -4 -57 -1 -80 15 -117 l21 -47 120 0 120 0 -11 31 c-6 16 -8 32 -5 35 5 5 19 -46 18 -63 0 -5 -28 -10 -61 -13 -60 -5 -61 -5 -45 -27 15 -22 23 -23 150 -23 l134 0 -35 66 c-43 84 -47 170 -11 249 l24 50 -66 -1 -66 -2 -23 -43 c-12 -24 -20 -33 -16 -19 4 14 17 43 30 66 13 22 24 44 24 47 0 11 -22 7 -79 -13z m16 -247 c-3 -10 -5 -2 -5 17 0 19 2 27 5 18 2 -10 2 -26 0 -35z"/>
 <path d="M1116 596 l-29 -13 31 -5 c26 -4 32 -1 32 14 0 10 -1 18 -2 17 -2 0 -16 -6 -32 -13z"/>
 </g>

</svg>